<?xml version="1.0" encoding="UTF-8"?>
<svg width="421px" height="508px" viewBox="0 0 421 508" version="1.1" xmlns="http://www.w3.org/2000/svg" xmlns:xlink="http://www.w3.org/1999/xlink">
    <!-- Generator: Sketch 47.1 (45422) - http://www.bohemiancoding.com/sketch -->
    <title>Pepis Guy Santa</title>
    <desc>Created with Sketch.</desc>
    <defs></defs>
    <g id="Pepis-Guy" stroke="none" stroke-width="1" fill="none" fill-rule="evenodd">
        <g id="Pepis-Guy-Santa" transform="translate(-17.000000, -22.000000)">
            <path d="M223.268191,178.334843 C225.228574,179.519571 225.228574,182.073745 223.268191,185.997365 C222.041604,188.371896 223.117405,190.660806 226.495593,192.864096 C229.873781,195.067387 234.681983,198.209802 240.9202,202.291344 C244.259066,204.21843 245.711912,202.936031 245.278738,198.444148 C244.628976,191.706322 246.333513,190.351039 247.055066,188.217423 C266.107803,186.734378 264.310079,189.105384 269.815928,181.954382 C271.829555,182.484708 271.89253,183.312096 274.700385,186.664956 C276.655633,191.472929 300.01986,243.585288 303.912259,249.901549 C306.507192,254.11239 306.230049,258.028695 303.08083,261.650463 C300.639205,265.300787 301.735756,268.680885 306.370483,271.790757 C313.322573,276.455565 318.474164,279.754118 334.07799,282.40358 C349.681816,285.053042 376.785707,300.992884 377.943992,342.411568 C378.716183,370.024024 374.427804,392.196488 365.078857,408.928958 C356.64395,416.315041 345.575258,420.155789 331.872783,420.451201 C311.31907,420.89432 319.062319,440.325468 321.625913,443.029878 C322.604429,443.717299 321.407093,451.700962 324.840681,454.081079 C332.956123,459.706594 349.330134,462.736725 350.053834,462.749247 C351.29285,462.770686 360.529226,464.886254 360.861102,466.940562 C361.192978,468.994869 360.751131,472.452452 354.041739,472.845911 C349.56881,473.108216 340.984354,474.076338 328.288369,475.750276 C311.697348,474.491172 303.022789,471.065784 302.264692,465.474112 C301.127545,457.086603 297.289403,454.647645 293.219237,453.641432 C289.149072,452.635218 275.699247,461.354903 269.184795,468.726511 C262.670344,476.098119 249.637276,491.017139 245.278738,509.314902 C241.820775,520.90202 231.920515,522.314221 227.594353,522.890745 C223.268191,523.467268 202.943937,526.241717 198.769681,527.519458 C194.595426,528.7972 188.889533,524.174495 197.718793,517.819216 C206.548053,511.463936 222.055972,502.643315 221.585363,490.731626 C218.390259,479.532798 220.345181,454.34567 221.585363,447.238844 C222.825546,440.132018 226.48715,426.093991 216.823704,427.034157 C207.160259,427.974323 190.72466,429.125317 184.888006,426.093991 C180.996903,424.073107 179.73648,419.896426 181.106736,413.563949 C180.740128,409.817802 180.06598,408.272805 179.084292,408.928958 C177.611759,409.913188 178.092932,418.032497 178.26167,423.525046 C178.430409,429.017596 175.241131,427.890658 177.04924,431.879241 C178.85735,435.867825 182.49464,436.6977 181.106736,438.334481 C179.718831,439.971261 177.017807,439.716858 175.400716,437.814276 C173.783624,435.911693 171.7503,430.205328 174.520063,423.525046 C175.672044,417.596574 173.876888,413.268269 173.338721,411.772593 C172.800554,410.276917 172.931814,407.233234 169.552554,410.897812 C166.173294,414.562391 166.267935,414.239282 166.485975,414.876629 C166.631334,415.301526 166.704014,416.077399 166.704014,417.204247 C165.380316,424.206082 164.089128,427.704101 162.830448,427.698303 C160.942429,427.689606 158.40112,424.191657 162.057268,416.10908 C165.713415,408.026503 168.248791,405.325339 170.793756,404.357517 C173.338721,403.389695 172.842043,399.303474 166.704014,400.507764 C162.830448,402.539901 159.852232,407.090983 156.020286,403.041619 C152.188341,398.992255 151.252407,390.052843 153.994983,387.91676 C156.737559,385.780677 154.204947,380.414794 152.410935,378.80155 C150.616924,377.188306 151.539399,373.761173 156.020286,370.255976 C160.501174,366.750779 159.969638,365.111652 156.020286,364.183172 C153.387385,363.564186 151.509178,362.421674 150.385664,360.755638 C149.494124,358.59321 148.118127,357.754396 146.257672,358.239196 C143.46699,358.966397 140.10441,350.15423 146.257672,350.133944 C152.410935,350.113658 157.248359,350.622853 164.45103,356.037567 C169.252811,359.647376 168.45489,355.105377 162.057268,342.411568 C152.576566,322.457544 142.305984,312.556137 131.24552,312.707346 C120.185056,312.858556 113.369484,315.645938 110.798805,321.069495 C107.184102,323.990578 103.10064,322.446452 98.5484187,316.437116 C91.7200862,307.423112 82.1785847,304.638258 83.1601807,296.930002 C84.1417767,289.221746 94.0848272,279.79534 104.073573,280.219451 C114.062319,280.643562 128.381283,283.028371 133.190446,281.912364 C137.99961,280.796356 140.574265,276.050137 134.230304,276.863118 C127.886344,277.676099 111.483952,265.408404 113.057019,255.780652 C114.630086,246.1529 114.969946,243.886976 106.262672,247.063097 C100.457823,249.180511 89.9020106,234.895598 74.5952342,204.208355 C65.5488174,191.535548 62.096636,181.382596 64.2386899,173.749501 C67.4517708,162.299858 73.4040231,152.090441 89.8333477,153.962157 C106.262672,155.833873 213.999816,173.571512 223.268191,178.334843 Z" id="body" fill="#000000"></path>
            <path d="M314.776436,118.380343 C376.908471,118.380343 439.91552,92.7957509 440.270284,72.0350159 C441.107759,43.0271589 380.865634,31.6750509 318.7336,31.6750509 C256.601566,31.6750509 198.203069,51.1747086 198.26199,81.7575303 C200.939542,104.225695 252.644402,118.380343 314.776436,118.380343 Z" id="pizza-back" fill="#F1A738" transform="translate(319.270430, 75.027697) rotate(16.000000) translate(-319.270430, -75.027697) "></path>
            <path d="M319.173003,185.814044 C349.272522,185.814044 359.377164,116.379615 355.792178,72.0829913 C352.207193,27.7863674 342.510665,-40.2601801 316.351737,-40.2134878 C291.656848,-41.6537639 287.283312,9.42747923 284.874355,51.2843974 C283.752049,70.7850698 280.927935,95.0361985 285.183654,122.086369 C290.062559,153.09762 303.096515,185.814044 319.173003,185.814044 Z" id="pizza-front" fill="#F5DEBA" transform="translate(319.697914, 72.785387) rotate(-75.000000) translate(-319.697914, -72.785387) "></path>
            <path d="M190.590175,377.838676 C189.690347,380.955319 185.692217,406.359231 185.064028,412.732237 C184.645235,416.980908 186.280881,419.19868 189.970968,419.385553 C252.640953,419.106042 291.068479,417.927278 305.253545,415.849262 C326.531145,412.732237 349.702865,409.318536 355.451012,406.236042 C359.283111,404.181047 361.19916,401.331897 361.19916,397.688592 C372.064776,373.168433 374.891528,352.677964 369.679417,336.217183 C368.615514,360.371477 247.071641,372.016471 190.590175,377.838676 Z" id="Belly" fill="#F0001D"></path>
            <path d="M209.507451,350.111678 C203.263947,344.952149 196.021583,348.70657 187.780361,361.374943 C186.880533,364.491585 374.687769,344.444621 366.869602,319.75345 C359.051435,295.062279 338.338381,289.195398 327.360673,289.004619 C316.382965,288.81384 304.173111,294.588485 302.256273,296.115471 C300.339434,297.642457 297.232502,300.997814 307.165528,304.436491 C313.787544,306.728943 317.579849,308.362499 318.542441,309.337158 C319.942082,310.831239 319.791327,311.753607 318.090176,312.10426 C315.538451,312.63024 290.614595,316.479471 283.443688,316.449827 C276.27278,316.420184 265.838527,312.773673 262.918831,311.144858 C258.146738,309.337158 253.412544,311.144858 245.166447,315.724359 C243.81263,316.208005 231.926298,327.670444 209.507451,350.111678 Z" id="Belly-Copy-2" fill="#F0001D"></path>
            <rect id="Rectangle-2" fill="#FAFF00" transform="translate(313.085797, 352.437150) rotate(-13.000000) translate(-313.085797, -352.437150) " x="286.085797" y="335.643252" width="54" height="33.5877964" rx="8"></rect>
            <path d="M299.019759,339.283608 L327.863442,339.372738 L327.863442,339.372738 C332.281699,339.386391 335.852336,342.979164 335.838683,347.397421 C335.838624,347.416413 335.838498,347.435405 335.838304,347.454396 L335.734067,357.661185 L335.734067,357.661185 C335.689767,361.998952 332.196379,365.511051 327.858912,365.578522 L299.204748,366.024247 L299.204748,366.024247 C294.787004,366.092967 291.150007,362.567386 291.081288,358.149643 C291.080972,358.129339 291.080734,358.109034 291.080572,358.088728 L290.99529,347.347083 L290.99529,347.347083 C290.960213,342.928944 294.513387,339.318899 298.931525,339.283822 C298.960936,339.283588 298.990348,339.283517 299.019759,339.283608 Z" id="Rectangle-2-Copy" fill="#000000" transform="translate(313.416877, 352.654402) rotate(-13.000000) translate(-313.416877, -352.654402) "></path>
            <path d="M312.222838,423 C264.122181,423.974225 238.419585,424.316029 235.11505,424.025411 C231.810515,423.734793 229.808162,427.697478 229.107991,435.913466 C226.591337,463.34761 225.734249,481.902063 226.536726,491.576826 C227.176677,495.222174 224.906038,499.87231 219.72481,505.527237 L207.566606,517.790948 C204.420189,521.194007 206.013288,521.982396 212.345903,520.156116 C218.678518,518.329835 226.830069,515.354071 236.800556,511.228824 C243.17312,488.110085 253.586226,470.084201 268.039876,457.151174 C282.493525,444.218147 293.367124,440.122925 300.660672,444.865509 C303.951846,447.344398 305.637383,452.737556 305.717284,461.044983 C305.767188,464.703532 307.935706,466.532806 312.222838,466.532806 L344.452707,466.532806 L326.096196,453.554756 C318.449842,448.455427 314.226028,441.230904 313.424752,431.881186 C313.218325,430.348052 312.817687,427.387656 312.222838,423 Z" id="Legs" fill="#F0001D"></path>
            <path d="M222.432529,292.50424 C186.689025,291.043284 164.533413,286.647337 155.965693,279.316399 C152.184917,276.227867 149.272263,276.227867 147.22773,279.316399 C143.783819,287.146799 139.251235,291.120759 133.629977,291.238279 C128.008719,291.3558 121.196677,290.623046 113.193849,289.040016 C106.107874,287.426654 100.698272,287.799033 96.9650429,290.157155 C93.2318139,292.515277 90.5225984,294.748707 88.8373965,296.857447 C87.3911754,298.70205 87.8182206,300.641109 90.1185321,302.674623 C92.4188436,304.708137 96.5661771,308.139254 102.560532,312.967973 C106.142342,315.306502 110.062789,315.436635 114.321873,313.358373 C120.710498,310.240979 137.963871,306.669691 147.22773,313.358373 C153.403637,317.817494 160.082542,328.104614 167.264447,344.219732 C173.109868,353.702886 179.383206,356.551439 186.084462,352.765391 C192.785718,348.979343 204.61535,342.1921 221.57336,332.403661 L206.904119,332.909198 C211.41731,329.894441 213.400794,326.989621 212.854571,324.194738 C212.035237,320.002413 208.645739,309.466416 212.854571,304.493928 C217.063403,299.521441 221.031016,299.934748 222.432529,298.319274 C225.497597,294.868664 225.497597,292.930319 222.432529,292.50424 Z" id="left-chest" fill="#F0001D"></path>
            <path d="M269.742131,182 C269.852019,191.591353 268.500919,194.990435 283.372082,223.646958 C286.841057,230.81 291.20971,239.657561 296.478042,250.18964 C295.02893,262.547205 289.791084,269.560568 280.764505,271.229729 C277.857112,271.878414 277.017489,273.585167 278.245636,276.349986 C281.176867,277.074313 284.796209,276.402019 289.103661,274.333103 C293.411114,272.264187 297.435254,272.936482 301.176081,276.349986 C305.740916,279.180319 308.070811,280.984684 308.165766,281.76308 C308.308199,282.930675 304.947308,289.553961 291.596472,288.428217 C285.044226,283.560543 278.027404,279.319924 272.586131,278.798023 C267.144859,278.276122 262.790645,277.472492 264.705219,271.229729 C265.859449,269.695004 270.741894,264.862499 271.664013,260.969344 C272.586131,257.07619 277.519887,231.513518 258.907706,213.537389 C255.954575,210.602891 252.053662,208.477684 252.542661,203.579635 C253.03166,198.681587 253.427492,194.404986 250.971921,193.038206 C249.938527,191.239669 248.614553,189.619241 247,188.17692 C260.285398,187.135133 267.866108,185.076159 269.742131,182 Z" id="right-chest" fill="#F0001D"></path>
            <path d="M151.900846,211.973001 C136.210223,224.337011 127.542466,232.101534 125.897575,235.266568 C123.430238,240.01412 118.207307,255.604499 122.87199,262.898246 C127.536674,270.191994 132.550652,271.438137 138.938194,270.191994 C145.325736,268.94585 149.932056,268.328793 157.293523,271.438137 C164.654991,274.54748 178.31248,281.130027 205.238965,284.301934 C218.394719,286.809029 237.896383,282.87169 246.807224,279.545399 C271.151177,270.458145 270.295071,254.703427 268.855238,249.038789 C268.696829,248.415569 268.618279,245.067713 264.910447,247.574741 C261.351512,252.854848 249.535118,263.907892 234.182086,268.846097 C221.509834,272.922046 206.257886,279.271655 203.984497,270.862568 C203.533192,269.193226 217.268781,268.846097 229.459224,265.830393 C241.446835,262.864866 254.310705,253.91712 259.69631,245.046444 C265.306821,235.805324 268.444119,232.441376 259.69631,223.553791 C247.833493,211.501424 246.52455,217.563679 234.904651,206.489308 C230.811337,203.240603 226.557734,205.508658 218.435853,209.415493 C217.408446,209.909703 214.133213,211.291535 221.328089,214.680543 C223.09282,216.071404 228.266353,216.942293 226.553127,224.641263 C225.98108,227.211951 230.607156,229.89249 237.332267,225.052534 C243.290609,222.99157 244.179111,222.810669 243.634225,224.042058 C242.294379,227.069979 240.54975,231.494569 231.192318,233.230037 C225.222158,234.337288 226.968144,238.195535 220.913785,240.032165 C214.870246,241.865513 209.483646,241.661 204.45612,240.539876 C202.020197,239.996672 206.963056,236.95324 212.451383,236.862477 C217.939709,236.771713 218.994767,234.326942 220.913785,232.717762 C223.307004,230.710943 220.913785,228.40238 214.927679,229.146576 C212.750049,229.423897 217.589754,223.658391 214.514389,221.295375 C208.993051,217.052951 205.83475,217.638428 201.835494,214.680543 C200.415454,213.969864 200.417726,208.271556 209.57729,202.625104 C214.927679,204.353881 218.378411,201.998663 219.560461,199.032498 C222.342462,193.162044 216.09256,187.831636 212.451383,186.761135 C206.248638,184.937537 193.115489,186.761135 183.85338,188.359294 C178.489078,189.284893 157.404607,207.056516 155.600021,208.882044 C154.396964,210.099063 153.163905,211.129382 151.900846,211.973001 Z" id="Face" fill="#FFC9B6"></path>
            <path d="M182.56191,222.529004 C185.047191,222.529004 187.177446,217.703396 187.177446,214.113545 C187.177446,212.300925 186.589578,209.942073 185.389566,208.611018 C184.212985,207.305952 182.436292,207.010819 181.205902,207.010819 C178.720621,207.010819 178.177446,210.523694 178.177446,214.113545 C178.177446,217.703396 180.076629,222.529004 182.56191,222.529004 Z" id="Eye" fill="#000000" transform="translate(182.677446, 214.769912) rotate(18.000000) translate(-182.677446, -214.769912) "></path>
            <path d="M225.066393,139.575418 C229.546795,139.095844 237.172058,138.86823 241.168249,139.575418 C245.16444,140.282605 253.002632,139.319207 243.401881,134.253346 C233.801129,129.187485 226.040998,123.204212 225.862849,120.272667 C225.684699,117.341122 225.71175,116.887826 234.938813,121.051733 C241.090188,123.827671 248.872475,127.927042 258.285673,133.349846 C260.813773,134.446051 261.865152,136.521242 261.439808,139.575418 C260.801794,144.156681 270.684261,140.481623 272.124142,139.575418 C273.564023,138.669212 288.19972,137.817495 279.446821,153.645365 C274.155665,157.836709 270.290864,158.935748 270.326803,170.399148 C270.362742,181.862547 249.596924,182.443368 243.839719,181.862547 C238.082514,181.281725 234.398181,170.342727 233.787604,164.427854 C233.177026,158.512981 227.344079,151.062906 223.313494,150.006375 C219.28291,148.949844 220.936879,141.480574 225.066393,139.575418 Z" id="Path-3" fill="#000000"></path>
            <path d="M167.146853,394.002217 C172.832372,394.002217 178.129293,391.356307 178.129293,389.261642 C178.129293,387.166977 173.164998,386.671573 167.479479,386.671573 C166.264697,386.671573 162.767852,384.639316 161.685814,384.78166 C157.703612,385.305526 154.975782,389.437175 154.975782,391.084288 C154.975782,392.141133 154.050795,394.345377 156.417005,394.812479 C158.74062,395.271173 164.329912,394.002217 167.146853,394.002217 Z" id="Oval" fill="#1F1F1F" transform="translate(166.463495, 389.843471) rotate(-35.000000) translate(-166.463495, -389.843471) "></path>
            <path d="M166.647932,379.103651 C172.564157,379.103651 179.689328,376.107545 176.598044,373.659229 C173.50676,371.210913 173.617589,369.720368 167.701364,369.720368 C161.785139,369.720368 155.155367,372.742791 155.155367,375.405093 C155.155367,376.894128 157.946483,379.169189 160.303954,380.053439 C162.161491,380.750172 164.040674,379.103651 166.647932,379.103651 Z" id="Oval-2" fill="#1F1F1F" transform="translate(166.250289, 374.972844) rotate(-29.000000) translate(-166.250289, -374.972844) "></path>
            <path d="M154.514004,367.729797 C155.894716,367.729797 155.942132,363.969548 155.942132,359.55127 C155.942132,357.91776 158.117022,354.898613 157.977029,352.971609 C157.738372,349.686499 155.024151,347.715541 154.153911,347.715541 C153.223377,347.715541 154.383251,350.513171 154.059463,354.11553 C153.902819,355.858294 152.481019,356.208232 152.481019,357.648801 C152.481019,362.067079 153.133292,367.729797 154.514004,367.729797 Z" id="Oval-3" fill="#1F1F1F" transform="translate(155.232264, 357.722669) rotate(-65.000000) translate(-155.232264, -357.722669) "></path>
            <path d="M232.536097,146.719717 C241.092857,145.882016 247.559603,145.882016 251.936335,146.719717 C258.501434,147.97627 266.035474,149.232822 267.292026,147.97627 C268.548579,146.719717 274.885667,145.010806 275.344852,146.719717 C275.804036,148.428628 276.875465,152.214977 271.713362,154.132072 C266.551258,156.049168 265.620036,162.65718 267.292026,164.667664 C268.964017,166.678148 266.728993,171.926505 258.916339,174.890417 C251.103686,177.854329 241.947209,178.246773 239.580547,169.553912 C237.213884,160.861051 235.60829,151.495857 232.536097,150.311906 C230.487968,149.522605 230.487968,148.325209 232.536097,146.719717 Z" id="right-hand" fill="#FFC9B6"></path>
            <path d="M67.0381861,297.705922 C61.7717976,300.433588 55.1422399,303.458558 44.6291895,302.758454 C34.1161392,302.058351 33.0739407,305.774451 34.6080804,307.856497 C36.14222,309.938544 38.3543148,311.778239 36.2144929,314.981247 C44.339751,318.744218 56.1772144,320.863699 68.4029815,319.399231 C80.6287486,317.934764 82.9570489,313.38227 85.9340103,313.326803 C88.9109717,313.271336 96.4287971,316.547955 85.9340103,321.398623 C75.4392235,326.249291 50.8145237,330.269305 29.9297966,322.428823 C9.04506944,314.588342 19.0995013,288.549907 21.7456893,286.60991 C24.3918772,284.669913 25.3943441,283.394249 36.2144929,289.427702 C47.0346418,295.461154 57.1051581,294.929601 61.3047995,294.354608 C65.5044409,293.779616 69.8136581,295.701622 67.0381861,297.705922 Z" id="left-hand-background" fill="#000000"></path>
            <path d="M67.8743487,297 C61.0878054,300.258222 52.2678484,301.867945 41.4144779,301.829171 C30.5611074,301.790397 28.1908063,304.533345 34.3035745,310.058017 C35.0709107,313.362004 35.0709107,315.082873 34.3035745,315.220624 C33.1525702,315.427251 48.2277852,321.713296 62.7132912,321.42708 C77.1987972,321.140863 82.5969845,315.43315 84.7369851,313.551571 C86.1636521,312.297186 80.5427734,306.779995 67.8743487,297 Z" id="left-hand" fill="#FFC9B6"></path>
            <path d="M160.911043,300.033168 C173.082555,306.67226 182.394508,309.948589 188.846902,309.862155 C198.525493,309.732503 197.501955,309.761262 198.876731,308.330854 C200.251506,306.900446 199.024769,302.843066 193.036291,303.377701 C187.047813,303.912336 170.990375,298.387774 166.980141,295.951272 C162.969907,293.514769 158.795605,293.189462 159.007762,295.951272 C159.149199,297.792478 159.783627,299.15311 160.911043,300.033168 Z" id="Path-2" fill="#000000"></path>
            <path d="M237.335582,237.767783 C228.842547,244.765006 222.238758,248.180167 217.524215,248.013267 C210.452402,247.762918 207.699696,244.782439 205.338804,245.824135 C202.977913,246.86583 200.617022,259.209853 202.977913,260.295275 C205.338804,261.380696 210.462807,258.044983 215.065299,256.891545 C219.667791,255.738106 236.545665,248.440806 243.434289,241.842256 C250.179162,237.767783 249.84279,235.785274 252.630362,235.82014 C255.417934,235.855006 253.239375,231.680507 248.92484,232.144912 C244.610305,232.609317 241.827877,232.899391 240.187457,232.144912 C238.547036,231.390433 236.927763,233.741321 237.335582,235.518634 C237.607462,236.70351 237.607462,237.453226 237.335582,237.767783 Z" id="smile" fill="#000000"></path>
            <path d="M231.174646,306.611271 C227.356128,302.086212 223.079159,301.813706 218.343738,305.793752 C211.240608,311.763821 217.653367,318.34415 217.713144,321.838879 C217.772921,325.333607 218.194052,327.227595 217.713144,328.125225 C217.232236,329.022854 230.523473,323.524629 238.30056,315.06795 C246.077648,306.611271 238.591849,303.59598 235.55745,305.439501 C233.534517,306.668516 232.073582,307.059105 231.174646,306.611271 Z" id="tie-left" fill="#FF8700"></path>
            <path d="M265.189097,296.286601 C263.218423,295.817891 260.610463,300.418858 267.341924,305.493659 C274.073384,310.56846 283.905238,313.420552 286.899279,313.410288 C289.89332,313.400024 291.567668,313.083804 295.542689,311.503579 C299.51771,309.923355 301.481198,310.672848 301.923425,309.490955 C302.365652,308.309062 300.976732,303.638271 295.542689,303.225525 C290.108647,302.81278 279.495415,293.695477 278.814932,291.071378 C278.134448,288.447279 270.737136,287.364751 270.863143,293.695477 C270.98915,300.026204 268.08568,296.015634 265.189097,296.286601 Z" id="tie-right" fill="#FF8700"></path>
            <path d="M250.386059,298.202035 C257.655933,298.202035 255.970356,293.349459 255.970356,291.036317 C255.970356,288.723176 252.604414,284.721259 246.082123,287.091717 C239.559832,289.462174 234.367516,289.568016 234.367516,291.881158 C234.367516,294.1943 243.116186,298.202035 250.386059,298.202035 Z" id="tie-middle" fill="#FF8700" transform="translate(245.253524, 292.284190) rotate(-20.000000) translate(-245.253524, -292.284190) "></path>
            <g id="specs" transform="translate(242.000000, 118.000000)" fill="#000000">
                <path d="M59,31 C62.3137085,31 66.1525608,27.5957862 66.1525608,25.6627896 C66.1525608,23.729793 62.3137085,24 59,24 C55.6862915,24 53,25.5670034 53,27.5 C53,29.4329966 55.6862915,31 59,31 Z" id="Oval-4"></path>
                <path d="M56.5015908,14.981542 C62.0244383,14.981542 73.5776496,13.2483622 73.5776496,11.0392232 C73.5776496,8.83008417 73.3387116,8.83168868 67.8158641,8.83168868 C62.2930166,8.83168868 53.0966757,6.53258232 53.0966757,8.74172132 C53.0966757,10.9508603 50.9787433,14.981542 56.5015908,14.981542 Z" id="Oval-5" transform="translate(63.137645, 11.382109) rotate(13.000000) translate(-63.137645, -11.382109) "></path>
                <path d="M119,19 C123.418278,19 127,16.9852814 127,14.5 C127,12.0147186 123.418278,11.9879557 119,11.9879557 C114.581722,11.9879557 111.011699,9.50267433 111.011699,11.9879557 C111.011699,14.4732371 114.581722,19 119,19 Z" id="Oval-6"></path>
                <path d="M151.479137,20.1870944 C161.696405,20.1870944 167.835274,16.7290965 167.835274,14.2438151 C167.835274,11.7585338 161.696405,14.2438151 151.479137,14.2438151 C141.261869,14.2438151 132.29701,11.7585338 132.29701,14.2438151 C132.29701,16.7290965 141.261869,20.1870944 151.479137,20.1870944 Z" id="Oval-7" transform="translate(150.066142, 16.663170) rotate(-7.000000) translate(-150.066142, -16.663170) "></path>
                <path d="M12.0756138,9.43916136 C18.6226149,9.43916136 22.5562673,7.22335218 22.5562673,5.63083838 C22.5562673,4.03832459 18.6226149,5.63083838 12.0756138,5.63083838 C5.52861263,5.63083838 -0.215872526,4.03832459 -0.215872526,5.63083838 C-0.215872526,7.22335218 5.52861263,9.43916136 12.0756138,9.43916136 Z" id="Oval-7-Copy" transform="translate(11.170197, 7.181108) rotate(27.000000) translate(-11.170197, -7.181108) "></path>
            </g>
            <g id="left-shoe" transform="translate(188.000000, 471.000000)">
                <path d="M24.4603337,5.62839776 C35.4716239,23.489157 28.7768389,29.0326704 19.1581495,37.3013349 C9.53946011,45.5699993 0.848515525,46.1955056 0.126432784,50.8637489 C-0.595649957,55.5319922 1.52518767,57.9568678 13.0403394,57.7005129 C24.5554912,57.4441579 23.1300598,57.533532 40.8849169,53.2086809 C58.639774,48.8838299 60.1896154,42.8913704 60.4472716,37.8033103 C60.7049278,32.7152503 64.7065769,23.3618322 68.8472948,22.3923681 C50.2231732,17.7083599 13.4490436,-12.2323614 24.4603337,5.62839776 Z" id="Path-8" fill="#8B572A"></path>
                <path d="M17.0435211,39.4331539 C21.3799213,36.485062 30.4053597,28.028893 32.5665187,21.2636002 C33.4013715,18.6501765 37.6816608,24.6980871 38.2385259,24.8595358 C35.7635748,26.5330579 29.4760495,38.7449066 20.6153459,45.1125849 C13.5085464,50.219833 3.2813612,49.9578411 3.02613733,49.5561031 C2.3198178,48.444313 16.9863588,39.4720155 17.0435211,39.4331539 Z" id="Path-13" fill="#AC7341"></path>
                <path d="M24.4377491,5.30268889 C35.4490393,23.1634481 27.9058051,29.7656815 18.2871157,38.034346 C10.6479001,44.6013645 25.9508045,38.5667717 32.6916598,22.3591043 C33.2032141,21.1291265 34.1585817,23.4817136 35.3272902,23.0627419 C38.1366442,22.0556133 32.508787,29.7979349 27.5942341,36.8280232 C25.0876238,40.4136376 19.1886405,45.5834063 19.3642683,45.7341307 C20.3767602,46.6030547 35.4913135,32.5270701 40.1420591,24.8430717 C48.0537582,11.7713001 17.9228745,-5.26470193 24.4377491,5.30268889 Z" id="Path-8-Copy" fill="#000000"></path>
                <path d="M0.602485065,51.2890464 C3.63958951,52.983085 30.5858065,57.7720445 60.0277874,38.050796 C59.8674526,40.9166013 59.4994539,42.4554696 59.0867167,43.1556955 C58.6739795,43.8559213 55.6218555,51.1215838 33.3286185,54.9944484 C11.0353814,58.8673131 9.1252203,58.0056699 5.72782529,57.2139107 C2.33043029,56.4221515 0.139956886,56.53526 0.602485065,51.2890464 Z" id="Path-9" stroke="#000000" fill="#000000"></path>
                <path d="M16.5,40.5 L19.5,45.5" id="Path-10" stroke="#000000" stroke-width="0.5" stroke-linecap="round"></path>
                <path d="M18.5,39.5 L25.5,40.5" id="Path-10-Copy" stroke="#000000" stroke-width="0.5" stroke-linecap="round"></path>
                <path d="M22.5,35.5 L29.5,36.5" id="Path-10-Copy-3" stroke="#000000" stroke-width="0.5" stroke-linecap="round"></path>
                <path d="M26.5,31.5 L33.5,32.5" id="Path-10-Copy-5" stroke="#000000" stroke-width="0.5" stroke-linecap="round"></path>
                <path d="M29.5,26.5 L36.5,27.5" id="Path-10-Copy-7" stroke="#000000" stroke-width="0.5" stroke-linecap="round"></path>
                <path d="M20.5,44.5 L22.5,35.5" id="Path-10-Copy-2" stroke="#000000" stroke-width="0.5" stroke-linecap="round"></path>
                <path d="M24.5,40.5 L26.5,31.5" id="Path-10-Copy-4" stroke="#000000" stroke-width="0.5" stroke-linecap="round"></path>
                <path d="M28.5,36.5 L29.5,26.5" id="Path-10-Copy-6" stroke="#000000" stroke-width="0.5" stroke-linecap="round"></path>
                <path d="M31.5,31.5 L31.5,22.5" id="Path-10-Copy-8" stroke="#000000" stroke-width="0.5" stroke-linecap="round"></path>
                <path d="" id="Path-11" stroke="#979797"></path>
                <path d="M38.7989478,10.2280193 C43.9761099,17.9513484 45.6576552,22.9263655 43.8435835,25.1530704 C36.8092864,33.7874065 27.9609176,41.9307573 17.2984771,49.5831229 C17.6683818,50.385542 17.9109358,50.7769725 18.0261391,50.7574141 C18.198944,50.7280767 30.8916866,48.9849499 42.6332422,45.2819843 C48.4178249,43.4576851 53.9739376,40.2398818 59.3015803,35.6285745 C60.2479466,28.9119084 62.1858239,24.907325 65.1152122,23.6148243 C58.970059,20.055985 50.1979708,15.5937166 38.7989478,10.2280193 Z" id="Path-12" fill="#AC7341"></path>
            </g>
            <g id="left-shoe-copy" transform="translate(338.198247, 453.080882) scale(-1, 1) rotate(4.000000) translate(-338.198247, -453.080882) translate(291.698247, 429.080882)">
                <path d="M52.6917445,10.0405706 C63.7030346,27.9013298 56.7959892,19.827383 47.1772998,28.0960475 C37.5586105,36.3647119 23.7902153,32.5843723 23.0681326,37.2526156 C22.3460498,41.9208589 27.3469723,47.7180351 38.862124,47.4616802 C50.3772758,47.2053253 50.3581722,48.8209209 68.1130293,44.4960699 C85.8678864,40.1712188 84.9641141,40.5780002 85.2217704,35.4899401 C85.4794266,30.4018801 87.8690745,24.8125035 92.0097924,23.8430394 C62.7888214,9.74485903 41.6804543,-7.8201886 52.6917445,10.0405706 Z" id="Path-8" fill="#8B572A"></path>
                <path d="M38.5698948,32.8865454 C43.5502532,31.4165497 55.3761344,25.1859995 58.9555318,24.3262747 C62.0867854,23.5741882 64.8302756,26.0387997 65.4698355,26.1193022 C62.6273526,26.9537642 55.4061261,33.0429115 45.2296026,36.2180025 C37.0674391,38.76461 25.3215107,38.633974 25.0283859,38.433657 C24.2171775,37.8792893 38.5042439,32.9059229 38.5698948,32.8865454 Z" id="Path-13" fill="#AC7341"></path>
                <path d="M51.0991462,7.24884086 C51.8087991,8.99185908 58.9368678,19.7899207 58.2827535,21.6482657 C57.6030729,23.5792451 50.7106706,24.8088109 47.3115357,27.8225695 C44.6957552,29.9403947 41.7943734,31.70475 38.3959507,32.7446475 C34.9975279,33.7845451 42.5098348,32.7304225 45.7183928,30.8710523 C53.8126704,26.1803912 59.6789229,23.759673 60.5824577,24.8145681 C61.2141293,25.5520574 64.6045396,26.8405421 57.7370902,30.0306231 C56.1880042,30.7502076 40.5524424,37.2984355 40.7229391,37.4447563 C41.735431,38.3136803 64.2121187,33.239348 68.8628642,25.5553496 C76.7745633,12.483578 48.9192154,1.89459029 51.0991462,7.24884086 Z" id="Path-8-Copy" fill="#000000"></path>
                <g id="Group" transform="translate(52.005539, 30.054729) rotate(24.000000) translate(-52.005539, -30.054729) translate(41.505539, 18.054729)" stroke="#000000" stroke-width="0.5" stroke-linecap="round">
                    <path d="M0.513230719,19.5696401 L3.74353613,23.5149065" id="Path-10"></path>
                    <path d="M2.5,17.5 L9.5,18.5" id="Path-10-Copy"></path>
                    <path d="M6.5,13.5 L13.5,14.5" id="Path-10-Copy-3"></path>
                    <path d="M10.5,9.5 L17.5,10.5" id="Path-10-Copy-5"></path>
                    <path d="M13.5,4.5 L20.5,5.5" id="Path-10-Copy-7"></path>
                    <path d="M4.5,22.5 L6.5,13.5" id="Path-10-Copy-2"></path>
                    <polyline id="Path-10-Copy-4" points="8.5 18.5 9.30106659 9.01316072 10.5457892 9.47830889"></polyline>
                    <path d="M12.5,14.5 L13.5,4.5" id="Path-10-Copy-6"></path>
                    <path d="M15.5,9.5 L15.5,0.5" id="Path-10-Copy-8"></path>
                </g>
                <path d="" id="Path-11" stroke="#979797"></path>
                <path d="M68.4588713,13.6631453 C72.2802437,18.396668 73.2838941,21.8767819 71.4698224,24.1034869 C64.4355253,32.7378229 51.0303115,38.6572829 31.2541811,41.8618669 C31.7098513,42.7318933 31.9952881,43.1571274 32.1104914,43.137569 C32.2832963,43.1082316 53.5042073,44.8078083 65.2457629,41.1048427 C71.0303456,39.2805435 76.3801034,36.9354955 81.2950364,34.0696988 C82.7134472,28.906937 84.8873468,25.6793057 87.8167351,24.386805 C81.6715819,20.8279657 75.2189606,17.2534124 68.4588713,13.6631453 Z" id="Path-12-Copy" fill="#AC7341"></path>
                <path d="M23.7672687,40.9864253 C26.8043732,42.6804639 33.001395,54.4645038 85.2495412,34.768364 C85.5880021,38.9784854 84.1605807,39.8419493 83.240368,40.3009413 C82.3201552,40.7599332 74.9431723,43.2349607 61.3881471,45.962359 C59.7893936,46.4023583 54.7013048,47.2227701 51.2109695,47.5352011 C43.5172065,47.479693 36.8185992,47.7281516 32.4782272,46.9828552 C28.5405503,46.3067067 24.6430337,43.7308356 23.7672687,40.9864253 Z" id="Path-9" fill="#000000"></path>
            </g>
            <g id="used-hat" transform="translate(123.018718, 171.348450) rotate(-44.000000) translate(-123.018718, -171.348450) translate(40.518718, 80.848450)">
                <path d="M33.6198896,21.579755 C32.0718681,25.8407167 30.8988125,27.138069 30.1007229,25.4718119 C28.9035885,22.9724264 28.6166349,23.4711079 26.3703264,24.6191712 C24.8727875,25.3845468 22.6872574,25.5711165 19.8137362,25.1788802 C20.5895736,28.3650944 19.3713494,30.7167686 16.1590636,32.2339028 C12.9467778,33.751037 12.140136,36.4156533 13.7391383,40.2277518 L14.1282194,41.6777143 C11.6906086,42.1669303 10.3391204,42.7640029 10.0737547,43.4689323 C9.6757063,44.5263263 10.6145906,58.1401047 19.8137362,63.1106018 C25.9465,66.4242665 27.8885171,66.4242665 25.6397876,63.1106018 C29.0727284,64.9212211 33.6479671,64.6842328 39.3655037,62.3996371 C38.0864136,67.3447985 31.2476127,78.9000013 18.8491009,97.0652456 L8.81196561,96.2228589 C6.77085688,97.1440764 6.44420903,98.7492042 7.83202207,101.038242 C9.2198351,103.32728 7.4266844,104.835374 2.45256996,105.562524 C3.35462044,110.392177 4.10986448,113.916609 4.71830207,116.13582 C-6.57158819,125.401223 6.75751225,139.379078 8.50884604,140.77436 C10.8507184,142.640122 12.780553,142.499947 14.2983497,140.353835 C14.7802379,143.515417 16.4563093,145.13398 19.3265641,145.209525 C22.1968189,145.285069 32.7325872,138.4472 50.933869,124.695916 L51.1607194,128.268213 C54.5217237,126.669623 56.5363146,126.12236 57.2044922,126.626424 C58.2067585,127.382519 62.5399053,128.938744 70.861779,129.120093 C79.1836528,129.301441 81.7691777,131.339751 84.0717772,128.268213 C88.8365185,128.268213 98.0687222,128.225505 102.849749,127.150379 C106.0371,126.433629 108.728711,126.075253 110.92458,126.075253 L111.551433,124.695916 C110.951907,124.302338 112.234503,124.008664 115.39922,123.814895 C118.274478,123.638848 124.931234,144.209698 143.961092,174.023906 C145.238276,176.024879 149.794313,178.033671 157.6292,180.050281 C156.530697,173.223761 156.642679,169.712707 157.965148,169.517119 C161.129186,169.04917 163.040775,162.246815 163.405292,162.595729 C165.84637,164.932321 159.921502,155.891113 160.549082,154.194089 C161.381465,151.943261 162.560887,150.016862 164.087347,148.414891 C162.275516,147.873328 161.120094,146.249531 160.62108,143.543501 C160.122066,140.837471 156.103419,135.38142 148.565138,127.17535 C140.11797,105.295417 135.079543,93.6692844 133.449859,92.2969506 C131.820175,90.9246168 128.957094,85.1735288 124.860616,75.0436866 C114.281211,47.1382315 108.071951,31.7577819 106.232834,28.9023376 C103.47416,24.6191712 89.2921975,5.15522226 80.4529506,2.96555318 C71.6137037,0.775884102 62.924983,-2.23785427 48.4769243,2.56612431 C44.8277409,5.4514013 34.8039504,16.6208738 33.6198896,20.899877" id="Path-7" fill="#000000"></path>
                <path d="M38.352971,31.594763 C40.7333966,30.848399 42.0907889,30.213488 42.4251477,29.6900299 C42.7595065,29.1665718 43.5586525,29.1665718 44.8225857,29.6900299 C51.8750928,39.2217653 54.6187765,44.8298552 53.0536368,46.5142997 C50.7059273,49.0409664 48.3598537,49.5490479 47.8893957,52.5464997 C47.4189378,55.5439515 43.7737066,60.8243349 38.7076139,61.814325 C33.6415211,62.8043151 29.4051095,64.280794 26.4079848,61.814325 C23.4108602,59.3478559 22.2180301,59.4868995 20.6456929,61.2267433 C19.0733557,62.9665871 8.73767591,47.1352518 11.0192988,45.2102347 C13.3009217,43.2852177 17.5144321,44.8241844 15.3365193,40.6859211 C13.1586065,36.5476579 15.4490628,35.5632295 16.5591211,34.9144687 C17.6691794,34.2657078 21.3029599,32.138505 21.3546514,28.9794355 C21.3891124,26.8733892 22.7399614,27.5827839 25.4071984,31.1076198 C24.6667233,27.8024182 25.1364179,26.4840673 26.8162821,27.1525668 C29.3360785,28.1553162 27.3554439,28.9794355 31.4030835,28.9794355 C34.1015099,28.9794355 36.4181391,29.8512113 38.352971,31.594763 Z" id="Path-5" fill="#FFFFFF"></path>
                <path d="M34.2162966,26.2516418 C36.6988129,26.9226172 38.0699044,27.6907588 38.329571,28.5560666 C38.7190708,29.8540282 38.5634379,26.7363589 39.6642831,26.7564046 C40.3981799,26.7697685 42.0582641,26.7697685 44.6445357,26.7564046 C42.7110499,24.4279435 41.8570643,22.5940368 42.0825788,21.2546844 C42.3080934,19.915332 43.8366738,22.0025946 46.6683202,27.5164722 L46.6683202,17.392817 C47.8677236,24.9797582 48.6478369,29.1641207 49.0086602,29.9459045 C49.5498952,31.1185803 54.5641142,40.2986937 54.3792479,42.353382 C56.0755258,37.2006989 57.6295346,34.0905467 59.0412744,33.0229255 C56.0464781,40.9372804 54.7218816,45.8457952 55.067485,47.74847 C52.8683003,48.6572102 49.6757379,50.4816509 49.0086602,54.7550128 C48.5639418,57.6039207 42.6961946,61.400076 31.4054186,66.1434787 C27.7947991,78.6753701 24.7920428,87.4791208 22.3971497,92.5547308 C18.3484426,101.135347 26.444026,100.191041 28.8628895,98.7986231 C32.0993212,99.7623064 32.190624,104.313128 36.4729506,102.904219 C40.890252,101.450903 43.3810714,101.668192 43.9454087,103.556086 C45.1986258,104.642113 46.1920192,105.139228 46.9255891,105.047433 C47.659159,104.955637 47.9288594,103.790766 47.7346904,101.552819 C51.5864092,102.858839 54.2009058,103.804409 55.5781803,104.38953 C55.9659892,102.790551 67.2626787,103.755104 73.2212789,106.524586 C67.6001865,107.712738 77.2477463,109.289613 78.3770155,110.380136 C80.0875852,109.382303 82.5356553,91.3958347 125.14938,126.857999 C125.14938,124.377028 126.520368,124.703806 136.920842,130.770383 C137.994497,131.396644 156.015014,143.612713 158.232408,142.643213 C160.395216,141.697578 145.951088,127.661336 145.61173,126.89711 C144.100839,123.494613 105.47693,30.6674763 103.961022,29.6117715 C102.445113,28.5560666 88.0815424,10.2336129 84.7201927,8.60678424 C81.3588431,6.97995559 73.8678832,1.94475127 53.1415016,3.9063004 C48.305744,5.39289128 37.2392168,18.0208082 35.4431921,22.489113 C35.0311824,23.4513538 34.6222172,24.70553 34.2162966,26.2516418 Z" id="Path-6" fill="#FF0000"></path>
                <path d="M12.2863495,103.420599 C10.1595177,99.6152467 10.9151277,97.8589109 14.5531795,98.1515914 C20.0102571,98.590612 30.1974631,103.707427 33.0340122,105.446816 C35.8705612,107.186204 38.0465768,104.20449 39.639667,103.345851 C40.7017272,102.773424 42.2707299,103.525796 44.3466753,105.602967 L48.7731734,105.498128 L49.6314039,103.75874 C60.0250623,105.736815 65.3140538,107.079145 65.4983783,107.785729 C65.6827028,108.492313 67.3703974,109.013417 70.5614622,109.349041 L79.1965529,113.322484 C79.8843663,110.566661 83.8446897,108.848868 91.0775229,108.169107 C99.252855,107.400766 126.571,130.925794 127.201941,129.365131 C127.408303,128.854683 128.697525,128.391791 128.54696,128.07637 C127.936054,126.796572 142.06333,136.468745 143.037022,136.055733 C143.68615,135.780391 146.972388,137.771022 152.895736,142.027624 C157.827388,143.383832 159.716758,144.759812 158.563843,146.155567 C155.931736,149.342079 162.645162,145.76097 161.947615,148.846578 C161.720569,149.850914 160.511559,151.908884 158.320583,155.020487 L155.527974,155.013556 C158.619728,156.208054 159.879033,157.42415 159.305889,158.661847 C158.732744,159.899543 158.717135,161.38582 159.259059,163.120678 L156.357036,163.994811 C156.665994,165.472249 155.914045,166.193975 154.101188,166.159989 C152.288331,166.126004 152.000747,166.805075 153.238436,168.197202 C154.014916,171.729084 154.208436,174.0557 153.818997,175.17705 C153.557106,175.931136 152.225762,175.678297 150.550784,175.309754 C150.006939,175.190093 149.144548,175.025993 147.963612,174.817456 C146.370014,173.696198 145.320177,172.682382 144.814101,171.776009 C139.851198,162.887552 136.182414,155.706209 132.12712,152.720763 C116.381654,141.129189 106.39939,138.181176 103.869175,138.356264 C100.211948,138.609341 87.2792907,137.952177 65.0712039,136.384772 C58.2183023,136.287298 53.4946854,135.687551 50.9003532,134.585533 C47.0088548,132.932505 41.9835242,134.921429 40.3834834,135.865509 C38.7834426,136.809588 36.349847,132.324322 33.4303541,134.921429 C31.2001717,131.243116 19.4878048,145.088183 19.4878048,143.673842 C19.4878048,142.730949 18.4848736,141.939013 16.479011,141.298035 C17.3221151,139.089255 16.6039874,138.219601 14.324628,138.689072 C10.9055888,139.393279 3.62347649,125.859217 5.51844005,120.901714 C7.41340361,115.944211 11.0637435,117.629147 10.0642397,116.736042 C9.39790375,116.140638 8.09579089,113.089472 6.15790109,107.582541 L12.2863495,103.420599 Z" id="Path-4" fill="#FFFFFF"></path>
            </g>
            <g id="X" transform="translate(232.000000, 35.000000)" fill="#CE5349">
                <g id="Group-3">
                    <ellipse id="Oval-8" transform="translate(17.956999, 4.835194) rotate(13.000000) translate(-17.956999, -4.835194) " cx="17.9569987" cy="4.83519416" rx="8.5" ry="3"></ellipse>
                    <ellipse id="Oval-8-Copy" transform="translate(8.956999, 27.835194) rotate(13.000000) translate(-8.956999, -27.835194) " cx="8.95699871" cy="27.8351942" rx="8.5" ry="3"></ellipse>
                    <ellipse id="Oval-8-Copy-5" transform="translate(8.956999, 14.835194) rotate(13.000000) translate(-8.956999, -14.835194) " cx="8.95699871" cy="14.8351942" rx="8.5" ry="3"></ellipse>
                    <ellipse id="Oval-8-Copy-2" transform="translate(35.956999, 17.835194) rotate(13.000000) translate(-35.956999, -17.835194) " cx="35.9569987" cy="17.8351942" rx="8.5" ry="3"></ellipse>
                    <ellipse id="Oval-8-Copy-8" transform="translate(62.956999, 19.835194) rotate(13.000000) translate(-62.956999, -19.835194) " cx="62.9569987" cy="19.8351942" rx="8.5" ry="3"></ellipse>
                    <ellipse id="Oval-8-Copy-7" transform="translate(49.956999, 32.835194) rotate(13.000000) translate(-49.956999, -32.835194) " cx="49.9569987" cy="32.8351942" rx="8.5" ry="3"></ellipse>
                    <ellipse id="Oval-8-Copy-18" transform="translate(77.125520, 32.565139) rotate(13.000000) translate(-77.125520, -32.565139) " cx="77.1255198" cy="32.5651391" rx="8.5" ry="3.74914553"></ellipse>
                    <ellipse id="Oval-8-Copy-19" transform="translate(72.125520, 55.565139) rotate(13.000000) translate(-72.125520, -55.565139) " cx="72.1255198" cy="55.5651391" rx="8.5" ry="3.74914553"></ellipse>
                    <ellipse id="Oval-8-Copy-20" transform="translate(81.125520, 45.565139) rotate(13.000000) translate(-81.125520, -45.565139) " cx="81.1255198" cy="45.5651391" rx="8.5" ry="3.74914553"></ellipse>
                    <ellipse id="Oval-8-Copy-21" transform="translate(90.125520, 20.565139) rotate(13.000000) translate(-90.125520, -20.565139) " cx="90.1255198" cy="20.5651391" rx="8.5" ry="3.74914553"></ellipse>
                    <ellipse id="Oval-8-Copy-22" transform="translate(113.125520, 18.565139) rotate(13.000000) translate(-113.125520, -18.565139) " cx="113.12552" cy="18.5651391" rx="8.5" ry="3.74914553"></ellipse>
                    <ellipse id="Oval-8-Copy-24" transform="translate(108.125520, 37.565139) rotate(13.000000) translate(-108.125520, -37.565139) " cx="108.12552" cy="37.5651391" rx="8.5" ry="3.74914553"></ellipse>
                    <ellipse id="Oval-8-Copy-23" transform="translate(90.125520, 8.565139) rotate(13.000000) translate(-90.125520, -8.565139) " cx="90.1255198" cy="8.56513914" rx="8.5" ry="3.74914553"></ellipse>
                    <ellipse id="Oval-8-Copy-6" transform="translate(35.956999, 44.835194) rotate(13.000000) translate(-35.956999, -44.835194) " cx="35.9569987" cy="44.8351942" rx="8.5" ry="3"></ellipse>
                    <ellipse id="Oval-8-Copy-3" transform="translate(67.956999, 7.835194) rotate(13.000000) translate(-67.956999, -7.835194) " cx="67.9569987" cy="7.83519416" rx="8.5" ry="3"></ellipse>
                    <ellipse id="Oval-8-Copy-4" transform="translate(44.956999, 4.835194) rotate(13.000000) translate(-44.956999, -4.835194) " cx="44.9569987" cy="4.83519416" rx="8.5" ry="3"></ellipse>
                </g>
                <g id="Group-2" transform="translate(137.000000, 48.000000) scale(-1, -1) translate(-137.000000, -48.000000) translate(98.000000, 23.000000)">
                    <ellipse id="Oval-8-Copy-9" transform="translate(18.500000, 5.000000) rotate(13.000000) translate(-18.500000, -5.000000) " cx="18.5" cy="5" rx="8.5" ry="3"></ellipse>
                    <ellipse id="Oval-8-Copy-10" transform="translate(9.500000, 28.000000) rotate(13.000000) translate(-9.500000, -28.000000) " cx="9.5" cy="28" rx="8.5" ry="3"></ellipse>
                    <ellipse id="Oval-8-Copy-11" transform="translate(9.500000, 15.000000) rotate(13.000000) translate(-9.500000, -15.000000) " cx="9.5" cy="15" rx="8.5" ry="3"></ellipse>
                    <ellipse id="Oval-8-Copy-12" transform="translate(36.500000, 18.000000) rotate(13.000000) translate(-36.500000, -18.000000) " cx="36.5" cy="18" rx="8.5" ry="3"></ellipse>
                    <ellipse id="Oval-8-Copy-13" transform="translate(63.500000, 20.000000) rotate(13.000000) translate(-63.500000, -20.000000) " cx="63.5" cy="20" rx="8.5" ry="3"></ellipse>
                    <ellipse id="Oval-8-Copy-14" transform="translate(45.500000, 33.000000) rotate(13.000000) translate(-45.500000, -33.000000) " cx="45.5" cy="33" rx="8.5" ry="3"></ellipse>
                    <ellipse id="Oval-8-Copy-15" transform="translate(36.500000, 45.000000) rotate(13.000000) translate(-36.500000, -45.000000) " cx="36.5" cy="45" rx="8.5" ry="3"></ellipse>
                    <ellipse id="Oval-8-Copy-16" transform="translate(68.500000, 8.000000) rotate(13.000000) translate(-68.500000, -8.000000) " cx="68.5" cy="8" rx="8.5" ry="3"></ellipse>
                    <ellipse id="Oval-8-Copy-17" transform="translate(45.500000, 5.000000) rotate(13.000000) translate(-45.500000, -5.000000) " cx="45.5" cy="5" rx="8.5" ry="3"></ellipse>
                </g>
            </g>
        </g>
    </g>
</svg>