<?xml version="1.0" encoding="UTF-8"?>
<svg width="1218px" height="304px" viewBox="0 0 1218 304" version="1.1" xmlns="http://www.w3.org/2000/svg" xmlns:xlink="http://www.w3.org/1999/xlink">
    <!-- Generator: Sketch 47.1 (45422) - http://www.bohemiancoding.com/sketch -->
    <title>Group 15</title>
    <desc>Created with Sketch.</desc>
    <defs>
        <path d="M10.9013553,8.0781898 C14.1029349,12.8310281 36.191259,30.6951522 35.722104,37.4269239 C35.2529489,44.1586955 35.722104,103.625831 34.7895886,157.371968 C37.3130971,168.623231 15.1019258,191.430669 2.52510159,200.151432 C-12.2875539,211.245078 49.8432006,198.722792 128.359761,200.151432 C160.343094,200.151432 135.354013,197.652215 129.602791,194.789328 C126.956761,193.811813 85.2687434,175.809408 74.1739716,171.171417 C71.114349,169.607938 68.8752101,124.86148 75.1753198,125.970047 C197.084524,130.412391 226.772909,41.9534236 166.394568,8.0781898 C134.214728,-6.37376165 67.8020219,2.85320033 18.1204559,3.44050513 C14.9621349,3.37968304 7.73350338,3.44050513 10.9013553,8.0781898 Z" id="path-1"></path>
        <filter x="-9.8%" y="-4.5%" width="114.5%" height="112.9%" filterUnits="objectBoundingBox" id="filter-2">
            <feMorphology radius="4.25" operator="dilate" in="SourceAlpha" result="shadowSpreadOuter1"></feMorphology>
            <feOffset dx="-6" dy="4" in="shadowSpreadOuter1" result="shadowOffsetOuter1"></feOffset>
            <feGaussianBlur stdDeviation="2" in="shadowOffsetOuter1" result="shadowBlurOuter1"></feGaussianBlur>
            <feComposite in="shadowBlurOuter1" in2="SourceAlpha" operator="out" result="shadowBlurOuter1"></feComposite>
            <feColorMatrix values="0 0 0 0 0   0 0 0 0 0   0 0 0 0 0  0 0 0 0.5 0" type="matrix" in="shadowBlurOuter1"></feColorMatrix>
        </filter>
        <path d="M82.7213229,42.7626302 C82.7213229,40.3102309 86.5090731,-0.901305552 42.9618761,0.015055145 C-0.585320859,0.931415842 0.0304483289,46.764651 0.0304483289,46.764651 C0.0304483289,46.764651 -1.72449386,76.8083978 21.4122637,86.3230592 C44.5490212,95.8377206 57.443927,90.403653 63.6316801,87.8731885 C70.4477892,84.141832 66.4938068,85.1849644 70.744076,92.0265138 C75.608986,103.652377 93.1019261,56.7629081 76.0261762,67.6637651 C60.0815104,78.0712467 21.8782736,87.5428835 23.3313499,53.1286193 C23.9733027,50.2560757 24.220853,48.9255818 29.1884384,49.0527848 C34.1560239,49.1799878 77.947942,47.0735202 77.947942,47.0735202 C77.947942,47.0735202 82.7213229,47.0735202 82.7213229,42.7626302 Z" id="path-3"></path>
        <filter x="-21.6%" y="-10.7%" width="131.2%" height="125.6%" filterUnits="objectBoundingBox" id="filter-4">
            <feMorphology radius="3" operator="dilate" in="SourceAlpha" result="shadowSpreadOuter1"></feMorphology>
            <feOffset dx="-6" dy="2" in="shadowSpreadOuter1" result="shadowOffsetOuter1"></feOffset>
            <feGaussianBlur stdDeviation="2" in="shadowOffsetOuter1" result="shadowBlurOuter1"></feGaussianBlur>
            <feComposite in="shadowBlurOuter1" in2="SourceAlpha" operator="out" result="shadowBlurOuter1"></feComposite>
            <feColorMatrix values="0 0 0 0 0   0 0 0 0 0   0 0 0 0 0  0 0 0 0.5 0" type="matrix" in="shadowBlurOuter1"></feColorMatrix>
        </filter>
        <path d="M19.237294,7.56949596 L36.4732,20.0266338 C36.4732,20.0266338 41.282048,27.7789505 38.877624,48.3411467 C36.4732,68.9033428 35.4306634,161.599477 35.4306634,161.599477 C35.4306634,161.599477 35.81492,167.501069 26.6473606,172.518943 C17.4798013,177.536817 5.23097776,184.208352 5.23097776,184.208352 C5.23097776,184.208352 -7.08378524,190.429692 6.07675439,190.398306 C19.237294,190.36692 90.1135735,190.203123 90.1135735,190.203123 C90.1135735,190.203123 101.671147,189.751946 64.1592539,177.243551 C57.3497734,172.518943 60.1354073,156.394649 60.0915894,148.028268 C60.0477715,139.661888 60.9971593,130.262792 69.4424835,133.772998 C77.8878076,137.283203 152.856175,156.033455 161.183304,64.5635139 C165.086061,22.2043355 131.778983,4.52298342 131.778983,4.52298342 C131.778983,4.52298342 94.9944836,-10.5357168 69.3406039,14.3008094 C57.6796065,24.606759 63.1722215,9.21205442 63.1722215,9.21205442 C63.1722215,9.21205442 65.9208733,1.44302847 58.1687998,1.09582052 C50.4167263,0.748612567 21.2512581,0.671234795 17.0281082,0.671234795 C12.046596,4.52298342 19.237294,7.56949596 19.237294,7.56949596 Z" id="path-5"></path>
        <filter x="-11.1%" y="-6.3%" width="116.1%" height="113.7%" filterUnits="objectBoundingBox" id="filter-6">
            <feMorphology radius="3" operator="dilate" in="SourceAlpha" result="shadowSpreadOuter1"></feMorphology>
            <feOffset dx="-5" dy="1" in="shadowSpreadOuter1" result="shadowOffsetOuter1"></feOffset>
            <feGaussianBlur stdDeviation="2.5" in="shadowOffsetOuter1" result="shadowBlurOuter1"></feGaussianBlur>
            <feComposite in="shadowBlurOuter1" in2="SourceAlpha" operator="out" result="shadowBlurOuter1"></feComposite>
            <feColorMatrix values="0 0 0 0 0   0 0 0 0 0   0 0 0 0 0  0 0 0 0.5 0" type="matrix" in="shadowBlurOuter1"></feColorMatrix>
        </filter>
        <path d="M96.702418,100.653869 C108.396824,100.653869 118.13614,94.9287339 118.13614,76.2372428 C118.13614,57.5457516 108.396824,32.9659915 96.702418,32.9659915 C85.0080122,32.9659915 73.6782002,48.5167061 73.6782002,67.2081973 C73.6782002,85.8996884 85.0080122,100.653869 96.702418,100.653869 Z" id="path-7"></path>
        <path d="M25.6487468,65.6918158 L38.8509342,78.9740722 C38.8509342,78.9740722 43.094582,82.2023062 42.2951323,101.112245 C41.4956827,120.022184 41.4193647,172.505445 41.4193647,172.505445 C41.4193647,172.505445 40.9455819,179.342764 25.0250195,187.381304 C9.10445716,195.419845 1.41164873,200.380202 1.41164873,200.380202 C1.41164873,200.380202 -3.51168862,202.589527 5.03055008,202.96257 C13.5727888,203.335613 113.785595,208.415342 113.785595,208.415342 C113.785595,208.415342 130.881989,211.566361 102.789608,193.468692 C89.2224876,184.456141 88.4657463,182.768945 88.4657463,182.768945 C88.4657463,182.768945 85.1229757,180.867448 86.794361,163.421186 C88.4657463,145.974924 86.3443729,67.1969987 86.3443729,67.1969987 C86.3443729,67.1969987 93.908244,59.0839844 81.6337603,59.1263792 C69.3592767,59.1687739 52.5633555,59.1263792 27.7790921,59.4990066 C15.9447139,59.4990066 25.6487468,65.6918158 25.6487468,65.6918158 Z" id="path-8"></path>
        <filter x="-5.9%" y="-3.3%" width="111.8%" height="109.4%" filterUnits="objectBoundingBox" id="filter-9">
            <feOffset dx="0" dy="2" in="SourceAlpha" result="shadowOffsetOuter1"></feOffset>
            <feGaussianBlur stdDeviation="2" in="shadowOffsetOuter1" result="shadowBlurOuter1"></feGaussianBlur>
            <feColorMatrix values="0 0 0 0 0   0 0 0 0 0   0 0 0 0 0  0 0 0 0.5 0" type="matrix" in="shadowBlurOuter1"></feColorMatrix>
        </filter>
        <path d="M36.9046544,28.9272009 C51.1062623,28.9272009 57.9084251,23.7037593 57.9084251,16.3846459 C57.9084251,9.06553246 47.7885665,0 33.5869586,0 C19.3853508,0 10.7142857,7.14448702 10.7142857,14.4636005 C10.7142857,21.7827139 22.7030466,28.9272009 36.9046544,28.9272009 Z" id="path-10"></path>
        <path d="M122.106769,7.67170157 C122.938093,24.1953761 121.022652,40.8024388 121.022652,40.8024388 C121.022652,40.8024388 121.525046,45.811764 114.306334,41.1037544 C107.087621,36.3957448 77.6321527,18.6091843 59.2497731,19.7530832 C40.8673935,20.8969821 42.6509923,34.1723754 42.6509923,34.1723754 C42.6509923,34.1723754 42.6555922,45.7776469 64.2192265,59.5782104 C85.7828609,73.3787738 101.308146,80.1917646 108.284896,83.338751 C115.261645,86.4857374 145.43035,105.530736 124.65829,139.609575 C103.88623,173.688414 38.2316562,150.842117 38.2316562,150.842117 C38.2316562,150.842117 21.2859091,142.859538 20.1016102,141.234557 C17.9344644,140.139121 14.5285218,137.298471 0,150.413702 C0,143.041393 0.0462049189,104.022205 0.0462049189,104.022205 C0.0462049189,104.022205 35.6806913,134.216029 64.3939432,135.331257 C93.1071951,136.446485 94.7321258,116.226782 94.7321258,116.226782 C94.7321258,116.226782 96.9478521,99.65867 71.7614272,89.3878274 C46.5750023,79.1169849 0.268632288,64.1946225 9.6671986,28.8620514 C19.0657649,-6.47051963 75.227572,-0.162742688 83.7419697,1.52276192 C92.2563673,3.20826653 109.16668,8.66716851 109.16668,8.66716851 C109.16668,8.66716851 115.712778,9.01157749 119.234836,5.26716971 C122.756894,1.52276192 122.106769,7.02220659 122.106769,7.67170157 Z" id="path-11"></path>
        <filter x="-14.4%" y="-10.1%" width="121.3%" height="116.4%" filterUnits="objectBoundingBox" id="filter-12">
            <feMorphology radius="4" operator="dilate" in="SourceAlpha" result="shadowSpreadOuter1"></feMorphology>
            <feOffset dx="-6" dy="-3" in="shadowSpreadOuter1" result="shadowOffsetOuter1"></feOffset>
            <feGaussianBlur stdDeviation="2" in="shadowOffsetOuter1" result="shadowBlurOuter1"></feGaussianBlur>
            <feComposite in="shadowBlurOuter1" in2="SourceAlpha" operator="out" result="shadowBlurOuter1"></feComposite>
            <feColorMatrix values="0 0 0 0 0   0 0 0 0 0   0 0 0 0 0  0 0 0 0.5 0" type="matrix" in="shadowBlurOuter1"></feColorMatrix>
        </filter>
        <path d="M41.5287335,1.41946977 L40.2536021,0 L5.62444579,11.5702464 C5.62444579,11.5702464 -0.398400752,13.0280085 0.0209217164,16.9855685 C0.440244184,20.9431285 3.46940311,56.6418283 3.46940311,56.6418283 L41.5287335,1.41946977 Z" id="path-13"></path>
        <filter x="-26.5%" y="-24.7%" width="162.6%" height="145.9%" filterUnits="objectBoundingBox" id="filter-14">
            <feOffset dx="2" dy="-1" in="SourceAlpha" result="shadowOffsetOuter1"></feOffset>
            <feGaussianBlur stdDeviation="4" in="shadowOffsetOuter1" result="shadowBlurOuter1"></feGaussianBlur>
            <feColorMatrix values="0 0 0 0 0   0 0 0 0 0   0 0 0 0 0  0 0 0 0.5 0" type="matrix" in="shadowBlurOuter1"></feColorMatrix>
        </filter>
        <path d="M69.5813924,41.8339829 C67.3089738,57.844038 69.5813924,74.5350911 69.5813924,74.5350911 C69.5813924,74.5350911 65.7172017,84.2547217 89.6300133,82.5558961 C113.542825,80.8570706 120.630643,73.7337445 122.68877,67.4220387 C124.746897,61.1103329 128.499316,41.6776762 109.856697,38.1420643 C91.2140771,34.6064523 90.4402626,33.9389682 74.3366672,35.4151373 C70.3026104,35.7849275 70.0303687,38.1404147 69.5813924,41.8339829 Z" id="path-15"></path>
        <filter x="-8.0%" y="-4.4%" width="115.9%" height="112.3%" filterUnits="objectBoundingBox" id="filter-16">
            <feOffset dx="0" dy="2" in="SourceAlpha" result="shadowOffsetOuter1"></feOffset>
            <feGaussianBlur stdDeviation="2" in="shadowOffsetOuter1" result="shadowBlurOuter1"></feGaussianBlur>
            <feColorMatrix values="0 0 0 0 0   0 0 0 0 0   0 0 0 0 0  0 0 0 0.5 0" type="matrix" in="shadowBlurOuter1" result="shadowMatrixOuter1"></feColorMatrix>
            <feMerge>
                <feMergeNode in="shadowMatrixOuter1"></feMergeNode>
                <feMergeNode in="SourceGraphic"></feMergeNode>
            </feMerge>
        </filter>
        <path d="M44.5447042,25.0261433 C53.3401918,25.0261433 61.6361521,22.0693708 62.0668361,15.8919577 C62.4975201,9.71454456 61.2262688,9.46797941 61.2262688,9.28701651 C61.2262688,2.92847498 54.5426993,0.00830263854 45.4895611,0.00830263854 C42.7508828,0.00830263854 39.5961918,-0.128210033 37.3269612,0.705850673 C36.247491,1.10261232 33.5624572,1.72027938 31.4979543,3.92185675 C29.4334513,6.12343412 27.6078431,10.4561576 27.6078431,12.7814387 C27.6078431,19.1399802 35.4915659,25.0261433 44.5447042,25.0261433 Z" id="path-17"></path>
        <filter x="-31.8%" y="-36.0%" width="163.7%" height="187.9%" filterUnits="objectBoundingBox" id="filter-18">
            <feMorphology radius="4" operator="dilate" in="SourceAlpha" result="shadowSpreadOuter1"></feMorphology>
            <feOffset dx="0" dy="2" in="shadowSpreadOuter1" result="shadowOffsetOuter1"></feOffset>
            <feGaussianBlur stdDeviation="2" in="shadowOffsetOuter1" result="shadowBlurOuter1"></feGaussianBlur>
            <feComposite in="shadowBlurOuter1" in2="SourceAlpha" operator="out" result="shadowBlurOuter1"></feComposite>
            <feColorMatrix values="0 0 0 0 0   0 0 0 0 0   0 0 0 0 0  0 0 0 0.5 0" type="matrix" in="shadowBlurOuter1"></feColorMatrix>
        </filter>
        <path d="M0.672510007,14.9750274 L0,70.1873525 L27.6812768,41.5914517 C27.6812768,41.5914517 64.9614919,35.6741229 73.0114261,37.3179928 C66.9358666,49.8025593 10.5623566,155.441751 10.5623566,155.441751 C10.5623566,155.441751 2.86268969,165.210022 22.5622312,164.165615 C42.1693883,165.210022 122.682441,170.096205 122.682441,170.096205 C122.682441,170.096205 128.912618,168.414233 129.764287,157.306665 C130.615956,146.199097 133.459665,100.080028 133.459665,100.080028 C133.459665,100.080028 133.335862,90.6662359 124.504319,101.639124 C115.672776,112.612012 98.2204765,134.375574 98.2204765,134.375574 C98.2204765,134.375574 93.1804017,142.360012 74.4170652,139.746149 C69.5736796,138.784284 73.9082245,131.59029 73.9082245,131.59029 L125.136678,6.71472142 C125.136678,6.71472142 133.631231,-2.31030924 113.317206,0.565764546 C93.0031801,3.44183833 10.5802144,6.50776361 4.03659638,7.9927648 C-0.430455505,9.32692941 0.672510007,14.9750274 0.672510007,14.9750274 Z" id="path-19"></path>
        <filter x="-5.2%" y="-2.9%" width="110.5%" height="108.2%" filterUnits="objectBoundingBox" id="filter-20">
            <feOffset dx="0" dy="2" in="SourceAlpha" result="shadowOffsetOuter1"></feOffset>
            <feGaussianBlur stdDeviation="2" in="shadowOffsetOuter1" result="shadowBlurOuter1"></feGaussianBlur>
            <feColorMatrix values="0 0 0 0 0   0 0 0 0 0   0 0 0 0 0  0 0 0 0.5 0" type="matrix" in="shadowBlurOuter1"></feColorMatrix>
        </filter>
        <path d="M1.69081397,42.4431021 L3.79775675,81.3237494 C3.79775675,81.3237494 4.78679766,84.9175808 6.51579263,84.5719692 C8.2447876,84.2263575 28.094686,41.6545514 28.094686,41.6545514 L65.8349996,40.4680839 C65.8349996,40.4680839 69.9605423,38.1348743 64.9847831,47.4101108 C60.0090238,56.6853473 6.9621563,161.299077 6.9621563,161.299077 C6.9621563,161.299077 1.52077067,171.768064 25.525438,169.526885 C46.7735441,170.932505 116.002423,173.578222 116.002423,173.578222 C116.002423,173.578222 119.174129,174.237003 120.364432,165.74833 C121.554735,157.259658 125.597913,86.8720742 125.597913,86.8720742 C125.597913,86.8720742 126.240889,75.7231194 119.521522,86.9310003 C112.802155,98.1388812 95.2671037,134.674401 84.4527483,134.961749 C73.6383929,135.249096 75.9598825,131.381159 75.9598825,131.381159 L129.945974,6.88416668 C129.945974,6.88416668 134.353815,0.87833684 125.178119,1.96880115 C116.002423,3.05926546 6.65063166,12.7344051 6.65063166,12.7344051 C6.65063166,12.7344051 0.438737324,11.9551237 0.564277104,19.0196374 C0.689816885,26.0841512 1.69081397,42.4431021 1.69081397,42.4431021 Z" id="path-21"></path>
        <filter x="-5.4%" y="-2.9%" width="110.7%" height="108.2%" filterUnits="objectBoundingBox" id="filter-22">
            <feOffset dx="0" dy="2" in="SourceAlpha" result="shadowOffsetOuter1"></feOffset>
            <feGaussianBlur stdDeviation="2" in="shadowOffsetOuter1" result="shadowBlurOuter1"></feGaussianBlur>
            <feColorMatrix values="0 0 0 0 0   0 0 0 0 0   0 0 0 0 0  0 0 0 0.5 0" type="matrix" in="shadowBlurOuter1"></feColorMatrix>
        </filter>
        <path d="M0.744412438,5.14332425 L3.50311343,73.3762032 C3.50311343,73.3762032 2.65374011,88.6988717 13.5909312,75.0100766 C24.5281222,61.3212815 38.6273168,48.8910794 51.4772751,46.2130589 C64.3272334,43.5350384 101.393711,43.9592187 95.2826342,72.6684138 C91.4616768,90.6871655 79.9937183,62.9779302 21.1297426,114.783724 C11.8903972,123.494609 -3.56965409,146.396743 4.13259111,167.20372 C11.8348363,188.010696 39.7752043,194.410629 56.7928784,191.256332 C73.8105525,188.102034 86.1609764,184.160727 90.9031972,180.470286 C95.6454181,176.779846 101.397112,179.596317 102.868246,185.426324 C104.33938,191.256332 120.389012,190.145884 120.389012,190.145884 L156.093309,191.481182 C156.093309,191.481182 159.394199,190.556081 159.237625,190.045239 C159.081051,189.534397 140.775393,173.439381 137.374198,171.964455 C133.973003,170.489529 127.668468,161.178589 128.451336,149.802753 C129.234205,138.426916 133.582055,72.7962667 124.712655,49.9036085 C115.843256,27.0109503 97.4274507,12.0066237 79.540639,8.49320015 C61.6538272,4.97977658 40.7559565,5.96040251 30.2084917,16.1332509 C21.1297426,22.3752641 17.203163,16.1332509 17.203163,16.1332509 C17.203163,16.1332509 11.9440703,7.56462333 6.66697912,2.03682621 C1.38988792,-3.49097091 0.744412438,5.14332425 0.744412438,5.14332425 Z" id="path-23"></path>
        <filter x="-4.4%" y="-2.6%" width="108.8%" height="107.3%" filterUnits="objectBoundingBox" id="filter-24">
            <feOffset dx="0" dy="2" in="SourceAlpha" result="shadowOffsetOuter1"></feOffset>
            <feGaussianBlur stdDeviation="2" in="shadowOffsetOuter1" result="shadowBlurOuter1"></feGaussianBlur>
            <feColorMatrix values="0 0 0 0 0   0 0 0 0 0   0 0 0 0 0  0 0 0 0.5 0" type="matrix" in="shadowBlurOuter1"></feColorMatrix>
        </filter>
        <path d="M76.7657442,118.986116 C76.7657442,118.986116 49.9354177,123.177121 44.5449246,145.934646 C39.1544316,168.69217 60.1425982,162.629657 60.1425982,162.629657 C60.1425982,162.629657 78.8339033,152.253321 81.5660373,139.12236 C84.2981713,125.9914 85.1975726,118.483039 83.7839617,118.244812 C82.3703508,118.006585 76.7657442,118.986116 76.7657442,118.986116 Z" id="path-25"></path>
    </defs>
    <g id="Pepis-Guy" stroke="none" stroke-width="1" fill="none" fill-rule="evenodd">
        <g id="Group-15" transform="translate(10.000000, 5.000000)">
            <g id="Group-6">
                <g id="Path">
                    <use fill="black" fill-opacity="1" filter="url(#filter-2)" xlink:href="#path-1"></use>
                    <use fill="#FF8700" fill-rule="evenodd" xlink:href="#path-1"></use>
                    <path stroke="#FFFFFF" stroke-width="4.25" d="M75.3015938,128.100974 C75.2485017,128.186123 75.1845719,128.301252 75.1151164,128.446518 C74.7027517,129.308979 74.3269908,130.754007 74.0307917,132.669891 C73.457188,136.380093 73.2084203,141.644306 73.2895449,147.539475 C73.3647663,153.00567 73.7225555,158.648356 74.2627575,163.033399 C74.5287528,165.192593 74.8300034,166.968932 75.1420599,168.220858 C75.2707189,168.73702 75.3970052,169.145587 75.5100115,169.427039 C79.6941391,171.181125 86.7344603,174.188648 101.44401,180.492798 L101.476242,180.506612 C122.936716,189.704053 129.173263,192.365278 130.33918,192.796 L130.446925,192.835804 L130.549751,192.886989 C131.605513,193.412534 133.617451,193.998776 136.90533,194.787065 C137.549066,194.941405 139.72157,195.452053 139.811349,195.473327 C140.932283,195.738942 141.722263,195.933891 142.410266,196.11843 C143.281434,196.352097 143.942375,196.557596 144.449158,196.76272 C144.806317,196.907282 145.104809,197.057258 145.372745,197.245418 C146.014369,197.696001 146.473758,198.302183 146.448956,199.269871 C146.421802,200.329331 145.827312,200.956026 145.060129,201.332154 C144.733033,201.492519 144.370403,201.601211 143.930823,201.691132 C143.240403,201.832366 142.2694,201.939543 140.956186,202.024098 C138.336789,202.192757 134.231537,202.276432 128.321102,202.276081 C103.503958,201.824523 80.0105012,202.645115 50.903362,204.528318 C46.2503115,204.829365 30.0783609,205.934542 26.6736744,206.151705 C18.7316371,206.658276 13.4945499,206.898413 9.48519141,206.904338 C4.55688875,206.91162 1.58472377,206.575478 -0.0639421998,205.612913 C-1.55750293,204.740906 -2.2008556,203.174743 -1.53953493,201.547382 C-1.11296601,200.497693 -0.192182699,199.531602 1.31424192,198.405167 C17.0429872,187.498863 34.6219447,166.334376 32.7161016,157.837023 L32.660501,157.589124 L32.6649084,157.335104 C32.7535693,152.225072 32.8318111,146.933727 32.9004627,141.455689 C33.1752231,119.531234 33.2475809,104.253462 33.3344778,67.1895026 C33.3825725,46.6757378 33.4336767,39.6979358 33.6022459,37.2791853 C33.7293233,35.455788 30.4905418,31.0141286 24.5881445,24.9398251 C23.6767797,24.0019169 22.7012338,23.0208679 21.6294401,21.961828 C19.9878657,20.3397878 14.7007798,15.2344096 14.0535309,14.599739 C11.3923072,11.9902324 9.91068358,10.4110966 9.13892009,9.26539124 L9.14664319,9.27677668 C6.87145564,5.94593837 8.10161228,3.07571586 11.4814041,1.97658316 C13.264128,1.39682847 15.3459637,1.26168071 18.0953372,1.3156536 C29.0724969,1.18588839 37.9179638,0.80054267 60.4658649,-0.387413596 C65.0544354,-0.629166524 67.6855737,-0.765999846 70.5504619,-0.910183646 C94.430003,-2.11199078 109.939374,-2.4593992 124.412148,-1.81750513 C142.746987,-1.00432137 156.878052,1.47486676 167.265141,6.13970393 L167.434331,6.22494422 C197.877118,23.3048527 207.128258,54.9011151 190.976226,82.4674895 C173.624617,112.08116 131.919323,130.11733 75.3015938,128.100974 Z"></path>
                </g>
                <path d="M77.4247273,26.7572728 C77.4247273,56.5437196 77.4247273,88.1430433 77.4247273,88.1430433 C77.4247273,88.1430433 76.5645505,94.8029541 91.9204949,93.0606626 C107.276439,91.318371 142.749269,93.2025754 153.198805,67.6808857 C163.648342,42.159196 143.363197,23.4946872 127.487634,21.6718478 C111.61207,19.8490084 110.466457,20.5146063 86.1922265,20.5146063 C82.8537279,20.5736858 77.8136255,20.7224636 77.4247273,26.7572728 Z" id="Path-2" fill="#FFFFFF"></path>
                <path d="M83.8478514,33.8315964 C83.8478514,55.1743749 84.6198284,71.3799976 83.8478514,82.0175572 C83.0551478,84.4877942 141.857269,86.5879403 148.083076,61.2651348 C154.308882,35.9423293 137.981133,31.9057177 129.790909,30.2300866 C121.600685,28.5544554 107.333418,28.5544554 88.3789768,28.5544554 C85.7721227,28.5967875 84.151521,29.5074956 83.8478514,33.8315964 Z" id="Path-2-Copy" fill="#FF8700"></path>
            </g>
            <g id="Group-7" transform="translate(155.000000, 112.000000)">
                <g id="Path-3">
                    <use fill="black" fill-opacity="1" filter="url(#filter-4)" xlink:href="#path-3"></use>
                    <use fill="#FF8700" fill-rule="evenodd" xlink:href="#path-3"></use>
                    <path stroke="#FFFFFF" stroke-width="3" d="M24.8246124,53.3243514 C24.2475122,67.992149 31.0139681,75.0257226 43.2380385,75.7066688 C53.2561002,76.2647285 66.4019688,72.1544657 75.2190472,66.3994302 C79.9543222,63.3765143 83.4965996,64.0445079 84.542092,68.1350951 C85.2751415,71.0032205 84.6509485,75.5390162 83.0416591,80.5737135 C81.5328655,85.2940078 79.3369753,89.8304997 77.1977357,92.5243807 C74.3753983,96.0784663 71.1139378,96.6383308 69.4083184,92.7179881 C68.4026133,91.0697591 67.5097517,88.8917372 67.0793862,87.6599635 C66.264814,88.1135058 64.8959136,88.8911604 64.3519628,89.1889365 L64.1994585,89.2615788 C62.4264299,89.986654 61.7153457,90.2675674 60.5665267,90.6751735 C49.5374699,94.5883318 37.3191295,94.486415 20.8417665,87.7103346 C12.0019126,84.0750708 5.99243937,77.3704303 2.37122251,68.5397143 C0.597861629,64.2151884 -0.506809076,59.6061318 -1.07448804,54.9422135 C-1.45257862,51.8359093 -1.54740683,49.1435202 -1.4840593,47.0947908 C-1.47911603,46.9349201 -1.47405173,46.8127532 -1.46986763,46.730159 C-1.47284194,46.2027332 -1.45199717,45.392221 -1.38709487,44.3388241 C-1.28407482,42.6667572 -1.09382835,40.830134 -0.79513116,38.8704967 C0.0433641518,33.3694519 1.57240046,27.8844435 3.96853629,22.7486819 C10.8547464,7.98911235 23.4433827,-1.0745506 42.9303187,-1.48461286 C63.381092,-1.91495709 75.5753303,6.55935004 81.1052687,20.8985509 C83.8045945,27.8979374 84.5110834,34.7842025 84.2619268,41.6663852 C84.2603481,41.7099902 84.2213229,42.6765582 84.2213229,42.7626302 C84.2213229,45.2783187 82.9511326,46.9990018 80.951947,47.9017444 C79.827091,48.409679 78.7385784,48.5735202 78.0200113,48.5717879 C77.9392271,48.5756737 77.9392271,48.5756737 77.5545113,48.5940974 C77.0270528,48.6193055 76.7322781,48.633362 76.2325554,48.6571133 C74.8048574,48.7249702 73.2023693,48.8005807 71.4619819,48.8820065 C66.4894167,49.1146532 61.4080222,49.3473009 56.5128526,49.5644477 C55.4581345,49.6112343 54.4216094,49.656871 53.4051227,49.7012608 C40.0042804,50.2864725 31.2647489,50.6064438 29.1500411,50.5522933 C25.7338058,50.4648151 25.4349538,50.6820356 24.9363438,52.8306237 C24.9040285,52.9698752 24.8938418,53.0146786 24.8246124,53.3243514 Z"></path>
                </g>
                <path d="M28.305569,36.3854103 C38.4760212,37.8302474 53.7427029,36.3811935 53.7427029,36.3811935 C53.7427029,36.3811935 58.4057223,36.5015646 58.0479063,31.4486598 C57.6900902,26.3957551 56.4813404,14.8842098 44.0502897,14.9861803 C31.6192389,15.0881507 27.5866767,25.3802672 27.5866767,25.3802672 C27.5866767,25.3802672 23.7338375,33.5735556 28.305569,36.3854103 Z" id="Path-4" fill="#FFFFFF"></path>
                <path d="M32.033477,32.1810399 C39.3986259,33.0660793 50.4543177,32.1784569 50.4543177,32.1784569 C50.4543177,32.1784569 53.8311422,32.2521906 53.5720221,29.1570183 C53.3129021,26.061846 52.4375602,19.0104137 43.4353508,19.072876 C34.4331415,19.1353384 31.5128759,25.4398058 31.5128759,25.4398058 C31.5128759,25.4398058 28.7227606,30.4586297 32.033477,32.1810399 Z" id="Path-4-Copy" fill="#FF8700"></path>
            </g>
            <g id="Group-8" transform="translate(217.000000, 102.000000)">
                <g id="Path">
                    <use fill="black" fill-opacity="1" filter="url(#filter-6)" xlink:href="#path-5"></use>
                    <use fill="#FF8700" fill-rule="evenodd" xlink:href="#path-5"></use>
                    <path stroke="#FFFFFF" stroke-width="3" d="M18.4890708,8.87948069 C17.9105895,8.6198678 17.1454702,8.20305363 16.3682539,7.63444444 C15.0921899,6.70087954 14.1912434,5.63467036 13.8794073,4.34840951 C13.4598035,2.617629 14.2361775,0.933887561 16.1105793,-0.51541624 L16.5158372,-0.828765205 L17.0281082,-0.828765205 C20.6856574,-0.828765205 29.1308635,-0.797721175 36.2858169,-0.746637095 C46.9446945,-0.670536118 54.7758835,-0.557648746 58.2359161,-0.402677196 C62.2728612,-0.22186629 64.5263349,1.80337713 65.0367571,4.90431471 C65.2415435,6.14844117 65.1480033,7.43113199 64.8731915,8.66955481 C64.7703262,9.13311078 64.6646487,9.49098475 64.5849939,9.71611186 C64.5500253,9.81412213 64.4847129,10.0063993 64.39922,10.2741783 C64.2551519,10.7254254 64.1108232,11.2155196 63.9763953,11.7251268 C63.7880527,12.4391214 63.635323,13.1310327 63.5309337,13.773402 C63.277044,15.335736 63.3924738,16.3322801 63.4694325,16.3750372 C63.4843829,16.3833435 63.7684586,16.3534503 64.3956855,16.0536918 C65.3701906,15.5879651 66.6906746,14.640942 68.2972507,13.2231202 C74.0771988,7.62732589 80.684655,3.72165842 87.9522818,1.33679314 C99.9601527,-2.60357903 112.732013,-2.21107109 124.841185,0.805989011 C126.86731,1.31080788 128.700301,1.85227398 130.309809,2.39486299 C130.876252,2.58581922 131.375282,2.76371147 131.803093,2.9241117 C132.06467,3.02218543 132.247334,3.09388987 132.347271,3.13480184 L132.482311,3.1980951 C132.7437,3.33685577 133.208358,3.60304121 133.847324,3.999756 C134.897256,4.65162671 136.063167,5.44008605 137.316051,6.3683282 C140.884504,9.01213738 144.449302,12.2521969 147.776658,16.1150386 C158.649752,28.7379873 164.504097,44.8702115 162.677126,64.6995067 C158.948783,105.653755 141.848794,128.334594 115.791765,136.221488 C106.288645,139.097875 96.1270687,139.791179 86.0217888,138.795617 C78.906278,138.094605 72.1338802,136.516055 68.8667736,135.158118 C65.7170147,133.848955 64.0573886,134.523068 62.9588777,137.045773 C61.9462099,139.371342 61.5648917,142.92681 61.5915688,148.020412 C61.599976,149.625639 61.5533501,150.674421 61.3257793,154.807321 C61.1791499,157.47025 61.1088576,159.057493 61.0776708,160.764015 C60.9310657,168.786152 62.0115332,173.767851 64.8501558,175.892786 C78.4646198,180.438485 86.6241248,183.726336 90.3840563,185.989634 C92.1917829,187.077799 93.1325667,187.990258 93.2762917,189.096502 C93.4562526,190.481653 92.5528428,191.196043 91.343943,191.521851 C90.8989727,191.641774 90.4846312,191.68978 90.11704,191.703119 C89.4441808,191.704674 89.4441808,191.704674 86.4163115,191.711674 C82.3791524,191.721009 82.3791524,191.721009 76.6598434,191.734239 C66.5669454,191.757589 56.4740475,191.78096 47.05401,191.802801 L46.8420694,191.803293 C25.8503469,191.851965 11.3058483,191.885839 6.08033169,191.898301 C2.64760162,191.906488 0.535779364,191.522521 -0.576795266,190.589164 C-2.05732492,189.347122 -1.68746086,187.70062 -0.369226645,186.28223 C0.175459982,185.69616 0.90109214,185.110777 1.77177051,184.518456 C2.38221557,184.103171 3.03004052,183.707831 3.67719165,183.343122 C4.0662178,183.123881 4.37199664,182.961755 4.51349875,182.891073 C4.57453868,182.857827 4.57453868,182.857827 4.86466869,182.699778 C5.26170703,182.483475 5.26170703,182.483475 5.85728845,182.158959 C6.9262975,181.576459 8.11748739,180.927216 9.40031031,180.227818 C13.0654917,178.229552 16.730661,176.229724 20.1514055,174.361066 L20.2207217,174.3232 C22.2848282,173.195616 24.1969937,172.150158 25.9271599,171.20315 C27.0206958,170.604602 27.9981451,169.978277 28.865536,169.328122 C31.1632172,167.605889 32.5951918,165.803577 33.3590604,164.024531 C33.6234126,163.408857 33.7873824,162.839031 33.8721681,162.327798 C33.9233831,162.018987 33.9366781,161.796654 33.9326435,161.675479 C33.9327181,161.677971 33.9327181,161.677971 33.9338328,161.696936 L33.9307582,161.582607 C33.9314057,161.525036 33.9314057,161.525036 33.9346433,161.245574 C33.9391828,160.858745 33.9391828,160.858745 33.9463401,160.264338 C33.9593643,159.190242 33.9750757,157.944362 33.9935021,156.541011 C34.0461457,152.531686 34.1099824,148.064255 34.1852347,143.253211 C34.4002464,129.507043 34.6635898,115.760729 34.9770619,102.929861 C35.6442359,75.6214653 36.4429578,56.246839 37.3877752,48.1669324 C38.5923488,37.8656388 38.0996191,30.060027 36.565486,24.4683007 C36.247885,23.3106842 35.9112379,22.3573792 35.5794658,21.5977243 C35.4766945,21.3624101 35.3897428,21.178993 35.3225088,21.0457374 L18.4890708,8.87948069 Z"></path>
                </g>
                <g id="Oval" transform="translate(95.907170, 66.809930) rotate(7.000000) translate(-95.907170, -66.809930) ">
                    <use fill="#FF8700" fill-rule="evenodd" xlink:href="#path-7"></use>
                    <path stroke="#FFFFFF" stroke-width="4" d="M96.702418,102.653869 C83.322776,102.653869 71.6782002,86.3161397 71.6782002,67.2081973 C71.6782002,47.9716353 83.4110408,30.9659915 96.702418,30.9659915 C109.149393,30.9659915 120.13614,54.8796653 120.13614,76.2372428 C120.13614,94.2026485 111.395768,102.653869 96.702418,102.653869 Z"></path>
                </g>
            </g>
            <g id="Group-14" transform="translate(339.000000, 33.000000)">
                <g id="Path-5">
                    <use fill="black" fill-opacity="1" filter="url(#filter-9)" xlink:href="#path-8"></use>
                    <use fill="#FFFFFF" fill-rule="evenodd" xlink:href="#path-8"></use>
                </g>
                <g id="Group-9" transform="translate(19.285714, 0.000000)">
                    <g id="Oval-2">
                        <use fill="#FF8700" fill-rule="evenodd" xlink:href="#path-10"></use>
                        <path stroke="#FFFFFF" stroke-width="4" d="M36.9046544,30.9272009 C22.0625165,30.9272009 8.71428571,23.3725567 8.71428571,14.4636005 C8.71428571,5.24154344 19.2855753,-2 33.5869586,-2 C47.7104981,-2 59.9084251,7.01357358 59.9084251,16.3846459 C59.9084251,25.4827695 51.3872315,30.9272009 36.9046544,30.9272009 Z"></path>
                    </g>
                    <path d="M30.0387325,129.970413 C30.5572536,146.919269 29.4707117,178.447579 29.4707117,178.447579 C29.4707117,178.447579 29.1634173,183.090232 18.8373788,188.548534 C-4.41062755,201.111942 -2.71720168,200.893757 5.73844174,200.640455 C14.1940852,200.387153 51.2800557,203.210316 78.7446682,203.210316 C78.1024973,201.459671 79.163582,200.272311 69.4623241,195.164556 C63.8688749,189.839194 61.4750488,183.060069 62.5591053,171.213767 C63.6431618,159.367466 63.5165184,70.1947733 63.5165184,70.1947733 C63.5165184,70.1947733 65.6219702,65.3202555 57.6607696,65.3490422 C49.699569,65.377829 37.563141,65.096022 21.4881273,65.3490422 C20.6004778,65.3490422 14.9965429,65.3490422 14.0531895,65.3490422 C14.0531895,66.0674955 20.3019949,69.9320087 24.1699514,71.2525954 C25.218822,71.6106978 30.1610995,76.3948033 30.9779526,81.1832727 C31.7948057,85.971742 30.4166467,116.989344 30.0387325,129.970413 Z" id="Path-5-Copy" fill="#FF8700"></path>
                </g>
            </g>
            <g id="Group-11" transform="translate(469.953737, 89.838998)">
                <g id="Path-8">
                    <use fill="black" fill-opacity="1" filter="url(#filter-12)" xlink:href="#path-11"></use>
                    <use fill="#FF8700" fill-rule="evenodd" xlink:href="#path-11"></use>
                    <path stroke="#FFFFFF" stroke-width="4" d="M109.505495,6.675361 C109.976451,6.68058009 110.583206,6.65654625 111.276056,6.58323959 C112.435808,6.46053265 113.574106,6.22259263 114.618053,5.84884959 C115.91773,5.38355306 116.988852,4.73587093 117.77803,3.89687174 C119.432532,2.1379195 120.991461,1.39247894 122.572226,2.36543235 C123.718336,3.07085776 124.055413,4.18982965 124.138384,5.74606838 C124.164679,6.23928972 124.157047,6.71346419 124.127752,7.2820151 C124.123727,7.36013821 124.118383,7.45679726 124.111347,7.58449792 C124.109914,7.61151393 124.108848,7.63330769 124.108107,7.64847797 C124.110942,7.70529838 124.112129,7.72955182 124.116661,7.82217388 C124.521846,16.1497424 124.292513,25.0471157 123.664018,33.6953738 C123.52139,35.6579752 123.368504,37.4504411 123.215483,39.0367829 C123.161799,39.5933084 123.111881,40.0847375 123.066993,40.5065647 C123.051692,40.6503539 123.038792,40.7691684 123.028518,40.8622013 C123.046387,41.4078604 122.980185,42.0102223 122.756462,42.6354538 C121.602952,45.8591178 118.115338,45.9757365 113.213773,42.7789593 C107.231359,38.8772577 98.6630467,34.0032062 90.1239818,30.0487945 C77.8254804,24.3534005 67.1555984,21.264988 59.3739889,21.7492221 C52.2727825,22.191116 48.1045669,24.4777738 46.0399526,27.9464613 C45.3615851,29.0861632 44.9441553,30.3108004 44.7414863,31.5616955 C44.6016091,32.4250323 44.5791773,33.1877397 44.6221533,33.7777381 C44.6279723,33.857624 44.6325826,33.9015979 44.6331822,33.9060607 L44.6509393,34.0382279 L44.6509922,34.1715826 C44.6510702,34.3685205 44.7149465,34.8891293 44.9248582,35.7002639 C45.3007099,37.1526188 45.9893212,38.827473 47.0766493,40.692931 C50.2795908,46.1880092 56.1193211,52.0198085 65.2973249,57.8936618 C74.9340494,64.0610928 83.9766359,69.2318212 92.6351089,73.6741077 C98.5000692,76.6831642 101.399038,78.0387145 109.107244,81.5156371 C115.583841,84.4370212 123.624651,90.8064682 128.578755,98.8233481 C135.955542,110.760687 135.990132,124.861153 126.366054,140.650508 C118.371978,153.765665 103.75898,159.813186 84.6073783,160.305703 C73.9769489,160.579083 62.6285087,159.126574 51.3436787,156.539396 C47.7248435,155.709736 44.3758467,154.820605 41.376989,153.930678 C40.3247892,153.618432 39.3905485,153.328038 38.584342,153.06682 C38.3004599,152.97484 38.0523888,152.892906 37.8413896,152.821933 C37.7123525,152.778529 37.6229221,152.747921 37.5743603,152.731022 L37.3793533,152.651421 C37.2349776,152.58341 36.9661627,152.456196 36.5906478,152.277553 C35.9658058,151.980298 35.2698041,151.647195 34.5203598,151.286006 C32.3783848,150.253698 30.2360846,149.202595 28.2343833,148.194353 C27.8871555,148.019457 27.5466545,147.847091 27.2133386,147.677453 C22.6718062,145.366093 20.0262423,143.89644 18.9016071,142.864477 C18.7430687,142.781344 18.573932,142.692461 18.5127609,142.661539 C17.3395052,142.068476 16.3670729,141.979027 14.4444044,142.666603 C11.4147648,143.750051 7.14490298,146.658205 1.34016141,151.898279 L-2,154.913519 L-2,150.413702 C-2,147.480707 -1.99280815,139.418747 -1.98049858,127.812735 C-1.97870403,126.126938 -1.97870403,126.126938 -1.97689637,124.451174 C-1.97184265,119.780229 -1.96642797,114.948442 -1.96101328,110.231849 C-1.95794496,107.568714 -1.95794496,107.568714 -1.95577908,105.710873 C-1.95415467,104.324688 -1.95415467,104.324688 -1.95379368,104.019837 L-1.94869071,99.7104761 L1.33912636,102.49631 C1.40499454,102.552122 1.5402508,102.665297 1.74213435,102.832005 C2.08248822,103.113055 2.4839706,103.439993 2.94381746,103.808986 C4.2620561,104.866773 5.78075613,106.046934 7.47775062,107.318791 C12.3296593,110.95518 17.630735,114.592219 23.2019274,117.984295 C32.6868896,123.759307 41.9517167,128.210877 50.5959698,130.819899 C55.5310949,132.309426 60.1734838,133.165826 64.471565,133.332764 C76.6963791,133.807578 84.5346629,130.431349 89.0625093,124.57761 C90.5278777,122.683136 91.5359414,120.651747 92.1673484,118.624159 C92.3864568,117.920553 92.5423933,117.271676 92.6455769,116.696461 C92.7041991,116.369661 92.7315807,116.15333 92.738553,116.066571 L92.7497743,115.961674 C92.7505257,115.956055 92.7555574,115.907184 92.7618796,115.817516 C92.8576945,114.458572 92.6805775,112.567608 91.9917413,110.335908 C90.9318091,106.901927 88.8756844,103.488705 85.5597112,100.262568 C82.0295102,96.8280071 77.2347312,93.7797041 71.0062214,91.2397627 C68.8463976,90.3590021 60.622644,87.1009351 59.633366,86.7041878 C54.7179061,84.7328557 50.78421,83.0814168 46.9728223,81.3573537 C33.3144617,75.1790593 23.2440159,68.8844618 16.2807966,61.3514156 C7.55177075,51.9080602 4.374249,40.9799694 7.73440969,28.347924 C12.1366213,11.7984368 26.2890343,2.63510686 46.7173041,-0.663792865 C59.9971469,-2.80831468 75.4193891,-2.16358203 84.1303516,-0.439165578 C86.7830001,0.085951 90.3450624,0.987374451 94.6055321,2.18374294 C95.4552684,2.42235462 96.3269791,2.67112385 97.2178307,2.92900938 C100.115994,3.76797555 103.090923,4.6662659 105.980251,5.56450779 C106.991461,5.87887544 107.919932,6.17084156 108.745283,6.43296525 C109.032515,6.52418753 109.286752,6.60529012 109.505495,6.675361 Z"></path>
                </g>
            </g>
            <g id="Group-10" transform="translate(427.000000, 33.000000)">
                <g id="Path-6" transform="translate(20.764367, 28.320914) scale(-1, 1) translate(-20.764367, -28.320914) ">
                    <use fill="black" fill-opacity="1" filter="url(#filter-14)" xlink:href="#path-13"></use>
                    <use fill="#FFFFFF" fill-rule="evenodd" xlink:href="#path-13"></use>
                </g>
                <path d="M35.8933179,12.0001338 C29.1000867,12.1166832 17.9355902,16.3960699 17.9355902,16.3960699 C17.9355902,16.3960699 13.6503433,16.7171823 14.4275853,24.7291345 C15.2048274,32.7410868 15.457776,38.4280797 15.457776,38.4280797 C15.457776,38.4280797 16.7896645,43.845761 20.1220401,38.7195916 C23.4544156,33.5934221 34.6956671,16.1085223 34.6956671,16.1085223 C34.6956671,16.1085223 37.4801252,11.9729095 35.8933179,12.0001338 Z" id="Path-7" fill="#FF8700" transform="translate(25.357728, 26.462346) scale(-1, 1) translate(-25.357728, -26.462346) "></path>
            </g>
            <g id="Group-12" transform="translate(618.000000, 33.000000)">
                <path d="M28.872697,31.3864454 L32.5033147,169.007576 C32.5033147,169.007576 33.8582186,185.963534 12.802843,198.131092 C9.99545959,200.38274 9.83184296,202.968166 16.590031,202.572444 C23.3482191,202.176721 89.3962728,201.708831 89.3962728,201.708831 L89.5643115,199.668876 L68.4419731,187.651668 C68.4419731,187.651668 63.2599375,185.566007 63.3363762,170.226055 C63.4128148,154.886103 63.4058659,119.04557 63.4058659,119.04557 C63.4058659,119.04557 61.3489711,111.614651 72.0920769,112.170948 C82.8351827,112.727244 160.470547,120.186264 164.527355,60.4534506 C168.584163,0.72063716 114.313023,1.00889202 114.313023,1.00889202 L0,-1.13686838e-13 L0,1.62014007 C0,1.62014007 20.1479116,15.4785564 23.6140435,20.4152784 C27.0801755,25.3520003 28.872697,31.3864454 28.872697,31.3864454 Z" id="Path-9" stroke="#FFFFFF" stroke-width="3" fill="#FF8700"></path>
                <g id="Path-10">
                    <use fill="#FF8700" fill-rule="evenodd" xlink:href="#path-15"></use>
                    <path stroke="#FFFFFF" stroke-width="3" d="M68.0941525,41.6381706 C68.1229832,41.4008927 68.1364664,41.2903523 68.1524254,41.1610951 C68.7647264,36.2018636 69.9606535,34.3099847 74.1997407,33.9214 C82.2270201,33.185563 86.1726542,33.0219208 90.216431,33.316755 C94.206086,33.6076431 90.5421966,32.9522912 110.136193,36.6683337 C119.122162,38.3725417 124.064959,43.7128447 125.510117,51.4661618 C126.507896,56.8192818 125.73648,62.9140231 124.114867,67.8870618 C121.197137,76.8349346 110.889746,82.5493324 89.7363091,84.0521251 C78.0913459,84.8794123 71.5511108,83.1725499 68.9786611,79.5067834 C67.8400142,77.8842002 67.6473625,76.1523937 68.0040462,74.5963394 C68.0197644,74.5277679 68.0358205,74.4631083 68.0519509,74.4024924 C68.0511403,74.3959991 68.0503207,74.3894264 68.0494924,74.3827745 C68.014206,74.0994136 67.975004,73.7680772 67.9328741,73.3912679 C67.8129376,72.3185561 67.6931662,71.0941153 67.5814721,69.7379386 C66.8749172,61.1590377 66.8200934,52.074618 67.8454007,43.5399799 C67.9223476,42.8994747 68.0052289,42.2654561 68.0941525,41.6381706 Z"></path>
                </g>
            </g>
            <g id="Group-13" transform="translate(740.000000, 88.000000)">
                <g id="Group" filter="url(#filter-16)" transform="translate(0.000000, 39.473684)">
                    <path d="M52.816503,0.685052275 C37.0003439,-0.166577883 19.3156773,0.699579005 19.3156773,0.699579005 C19.3156773,0.699579005 13.1130124,0.732667666 18.5481759,6.21892907 C23.9833394,11.7051905 27.023712,14.5403238 27.023712,14.5403238 C27.023712,14.5403238 29.0870337,21.9231304 28.9456407,30.4959182 C28.8042477,39.0687061 31.5317778,84.9788197 31.5317778,84.9788197 C31.5317778,84.9788197 31.5224645,87.6977392 28.4279053,89.9602772 C25.3333461,92.2228153 6.07172605,105.262169 3.61216533,105.333592 C1.15260462,105.405015 -0.806577311,112.258807 10.4066489,110.489774 C19.3156773,111.347658 47.6895254,111.257269 49.0323355,111.257269 C50.3751456,111.257269 85.3119144,113.254695 87.0594301,112.255982 C88.8069459,111.257269 64.9242304,95.9747466 64.9242304,95.9747466 C64.9242304,95.9747466 61.9981574,94.0872806 61.0422731,75.3488088 C60.0863887,56.6103369 56.8351966,6.28066766 56.8351966,6.28066766 C56.8351966,6.28066766 58.0078483,0.699579005 52.816503,0.685052275 Z" id="Path-12" fill="#FFFFFF"></path>
                    <path d="M33.6129436,23.2193774 L36.62206,81.6342767 C36.62206,81.6342767 37.3411738,88.3488985 27.8961714,96.2325509 C18.4511689,104.116203 13.0725039,106.525821 13.0725039,106.525821 C13.0725039,106.525821 10.8358407,108.556406 13.0725039,108.71805 C15.3091671,108.879693 59.4458236,109.877224 59.4458236,109.877224 L71.4235624,110.380899 C71.4235624,110.380899 74.1790228,107.039971 69.8738657,105.861563 C66.0334325,104.810359 58.8231071,97.6927259 57.2688918,88.9801159 C57.080819,87.9258185 56.9755686,86.848166 56.9691338,85.7550812 C56.909523,75.6288513 54.0932292,26.8537541 54.0932292,26.8537541 C54.0932292,26.8537541 56.4259778,11.8324544 51.6875523,9.59406915 C46.9491268,7.35568392 38.748518,8.53320875 38.748518,8.53320875 C38.748518,8.53320875 30.7346763,9.05426952 29.3154238,8.3956898 C27.8961714,7.73711008 26.5092765,11.214677 29.8373355,14.0666083 C33.1653945,16.9185395 33.6129436,23.2193774 33.6129436,23.2193774 Z" id="Path-11" fill="#FF8700"></path>
                </g>
                <g id="Oval-3">
                    <use fill="black" fill-opacity="1" filter="url(#filter-18)" xlink:href="#path-17"></use>
                    <use fill="#FF8700" fill-rule="evenodd" xlink:href="#path-17"></use>
                    <path stroke="#FFFFFF" stroke-width="4" d="M63.2054391,8.59689245 C63.3271512,8.7904145 63.4379245,9.00512851 63.5382397,9.2467726 C64.0967794,10.5922108 64.2926526,12.7226468 64.061993,16.0310583 C63.5668234,23.1334056 55.2545737,27.0261433 44.5447042,27.0261433 C34.5854574,27.0261433 25.6078431,20.4682018 25.6078431,12.7814387 C25.6078431,9.86362489 27.6892282,5.0596332 30.0390532,2.55378964 C30.6992293,1.84978059 31.4381912,1.24812138 32.2467773,0.733350563 C33.0919894,0.195262461 33.9692887,-0.223950325 34.9324567,-0.586550316 C35.4312477,-0.774328201 36.607071,-1.16036849 36.6369868,-1.17136409 C38.2616399,-1.76850893 40.1090923,-1.97344315 42.7603147,-1.99730347 C43.2437126,-2.00165393 43.6337981,-2.00081297 44.4718532,-1.99581309 C44.9958049,-1.99268717 45.214155,-1.99169736 45.4895611,-1.99169736 C55.823524,-1.99169736 62.77853,1.61583503 63.2054391,8.59689245 Z"></path>
                </g>
            </g>
            <g id="Group-2" transform="translate(809.000000, 84.000000)">
                <g id="Path-14">
                    <use fill="black" fill-opacity="1" filter="url(#filter-20)" xlink:href="#path-19"></use>
                    <use fill="#FFFFFF" fill-rule="evenodd" xlink:href="#path-19"></use>
                </g>
                <path d="M7.46883265,21.4487101 L7.23214286,54.5379596 L23.5185199,38.4056307 C23.5185199,38.4056307 25.2346976,35.9726173 38.4434009,35.1553761 C51.6521041,34.3381348 82.628792,33.7273756 82.628792,33.7273756 L18.8917668,159.125326 L116.453269,165.511204 C116.453269,165.511204 121.9309,166.081271 122.619471,158.832743 C123.308042,151.584214 125.09633,121.278192 125.09633,121.278192 C125.09633,121.278192 124.782826,110.527147 115.466077,127.125769 C106.149329,143.724391 94.348792,149.81876 67.5135392,144.143352 C64.6010057,143.98938 61.6460543,143.784991 64.8296012,137.143996 C68.0131481,130.503 115.466077,13.39693 115.466077,13.39693 C115.466077,13.39693 115.153869,9.12158911 113.610549,9.12000043 C112.06723,9.11841175 57.8813928,13.5440059 13.9371298,16.820289 C7.46883265,17.8580693 7.46883265,21.4487101 7.46883265,21.4487101 Z" id="Path-13" fill="#FF8700"></path>
            </g>
            <g id="Group-3" transform="translate(931.000000, 80.000000)">
                <g id="Path-16">
                    <use fill="black" fill-opacity="1" filter="url(#filter-22)" xlink:href="#path-21"></use>
                    <use fill="#FFFFFF" fill-rule="evenodd" xlink:href="#path-21"></use>
                </g>
                <path d="M6.46979332,26.9967347 L7.07685036,62.4255901 L9.76548832,62.4725483 L22.7482473,40.9356764 C22.7482473,40.9356764 23.7336167,35.3311428 28.1789163,35.4562519 C32.6242159,35.581361 77.1454486,35.2870903 77.1454486,35.2870903 L14.4134894,162.64852 C14.4134894,162.64852 51.4442084,165.77807 64.9553492,165.949053 C78.46649,166.120036 111.708962,166.998329 112.983421,167.518626 C114.296073,162.64852 115.161124,153.325012 114.810681,150.107053 C114.460239,146.889095 120.291793,106.613187 119.83012,105.387584 C119.368447,104.161982 101.844971,140.512622 83.4001603,139.657705 C64.9553492,138.802789 67.0519748,136.960044 67.0519748,136.960044 C67.0519748,136.960044 117.430626,22.0686443 121.807474,15.3315031 C126.184323,8.59436195 114.284012,10.653508 114.284012,10.653508 L19.9794123,17.1435249 C19.9794123,17.1435249 8.30558299,17.1896102 6.9929305,25.0922427 C5.68027801,32.9948752 6.46979332,26.9967347 6.46979332,26.9967347 Z" id="Path-15" fill="#FF8700"></path>
            </g>
            <g id="Group-5" transform="translate(1045.000000, 69.000000)">
                <g id="Group-4">
                    <g id="Path-18">
                        <use fill="black" fill-opacity="1" filter="url(#filter-24)" xlink:href="#path-23"></use>
                        <use fill="#FFFFFF" fill-rule="evenodd" xlink:href="#path-23"></use>
                    </g>
                    <path d="M4.3220014,11.6953821 C3.80780672,30.9661914 9.08914585,48.9389721 9.08914585,70.961883 C27.3462167,52.3764541 39.861391,38.3881182 62.2968529,38.8345359 C84.7323147,39.2809536 104.851169,45.1114035 100.04489,77.9956241 C99.0790551,82.9857574 95.9918464,84.792645 91.8619329,85.4292039 C87.7320194,86.0657629 64.1202752,80.8161708 19.3711847,127.494956 C-0.413964222,151.679056 10.7053898,169.681118 10.7053898,169.681118 C10.7053898,169.681118 22.4468164,197.637582 65.4925395,185.845457 C81.7906862,181.71847 95.5449729,172.288293 97.210522,170.56584 C98.8760711,168.843386 102.576863,168.18994 105.206393,177.397652 C107.835923,186.605363 137.720103,184.840325 137.720103,184.840325 C137.720103,184.840325 146.899147,184.438713 135.107553,176.612048 C123.315959,168.785384 123.658639,162.337563 122.388253,157.84494 C131.133954,39.841569 109.00262,20.5862199 71.0561904,14.8830289 C56.4706728,13.3140249 36.6711306,18.3438227 27.3462167,27.3709184 C18.0213027,36.3980141 11.6352383,19.249444 11.6352383,19.249444 C11.6352383,19.249444 5.37445548,5.82645123 4.3220014,11.6953821 Z" id="Path-17" fill="#FF8700"></path>
                </g>
                <g id="Path-19">
                    <use fill="#FF8700" fill-rule="evenodd" xlink:href="#path-25"></use>
                    <path stroke="#FFFFFF" stroke-width="4" d="M76.438462,117.013006 C76.5875672,116.987049 76.8398101,116.944395 77.1712715,116.890437 C77.743688,116.797254 78.3473569,116.704094 78.9559126,116.616976 C79.379777,116.556298 79.7915637,116.500672 80.1866912,116.45119 C82.0354821,116.219663 83.30458,116.135823 84.116323,116.272621 C87.6667935,116.87096 87.0275581,122.691744 83.5241018,139.529771 C82.3056647,145.385724 78.2758829,150.985939 72.3500581,156.261849 C69.8954045,158.447289 67.2734424,160.430153 64.6514622,162.178673 C63.7330896,162.791108 62.8789866,163.331321 62.1101856,163.794928 C61.6429571,164.076679 61.3036413,164.272629 61.113332,164.378278 L60.9152618,164.488235 L60.6976154,164.551103 C60.3178272,164.660807 59.6799109,164.81403 58.8430331,164.964385 C56.4497514,165.394365 53.9642673,165.518391 51.5875955,165.14115 C43.5825058,163.87053 39.7568488,157.471679 42.5987747,145.473668 C44.8616817,135.920152 50.7734693,128.740692 59.1452529,123.632047 C62.9257997,121.325075 66.9618484,119.595166 70.99699,118.354185 C72.4102695,117.91954 73.7250178,117.576421 74.9093077,117.314617 C75.6166139,117.158258 76.1363669,117.060838 76.438462,117.013006 Z"></path>
                </g>
            </g>
        </g>
    </g>
</svg>