<?xml version="1.0" encoding="UTF-8"?>
<svg width="414px" height="496px" viewBox="0 0 414 496" version="1.1" xmlns="http://www.w3.org/2000/svg" xmlns:xlink="http://www.w3.org/1999/xlink">
    <!-- Generator: Sketch 47.1 (45422) - http://www.bohemiancoding.com/sketch -->
    <title>Pepis Guy 2</title>
    <desc>Created with Sketch.</desc>
    <defs></defs>
    <g id="Pepis-Guy" stroke="none" stroke-width="1" fill="none" fill-rule="evenodd">
        <g id="Pepis-Guy-2" transform="translate(0.000000, -32.000000)">
            <path d="M206.268191,178.602244 C208.228574,179.786972 208.228574,182.341146 206.268191,186.264766 C205.041604,188.639297 206.117405,190.928207 209.495593,193.131497 C212.873781,195.334788 217.681983,198.477204 223.9202,202.558745 C227.259066,204.485831 228.711912,203.203433 228.278738,198.711549 C227.628976,191.973724 229.333513,190.618441 230.055066,188.484825 C249.107803,187.001779 247.310079,189.372785 252.815928,182.221783 C254.829555,182.752109 254.89253,183.579497 257.700385,186.932357 C259.655633,191.74033 283.01986,243.852689 286.912259,250.168951 C289.507192,254.379791 289.230049,258.296096 286.08083,261.917864 C283.639205,265.568188 284.735756,268.948286 289.370483,272.058158 C296.322573,276.722966 301.474164,280.021519 317.07799,282.670981 C332.681816,285.320443 359.785707,301.260285 360.943992,342.67897 C361.716183,370.291426 357.427804,392.463889 348.078857,409.196359 C339.64395,416.582442 328.575258,420.42319 314.872783,420.718603 C294.31907,421.161721 307.610282,443.021317 310.173875,445.725727 C329.673979,459.424819 331.241168,462.029636 332.480184,462.051075 C333.7192,462.072513 344.789634,467.870561 345.12151,469.924869 C345.453385,471.979176 343.751131,472.719853 337.041739,473.113312 C332.56881,473.375618 317.340919,474.18928 291.358064,475.554299 C286.144295,475.435137 283.158361,472.579719 282.400264,466.988047 C281.263117,458.600538 280.289403,454.915047 276.219237,453.908833 C272.149072,452.902619 258.699247,461.622304 252.184795,468.993912 C245.670344,476.36552 232.637276,491.28454 228.278738,509.582303 C224.820775,521.169421 214.920515,522.581622 210.594353,523.158146 C206.268191,523.734669 185.943937,526.509118 181.769681,527.786859 C177.595426,529.064601 171.889533,524.441896 180.718793,518.086617 C189.548053,511.731337 205.055972,502.910716 204.585363,490.999027 C201.390259,479.800199 203.345181,454.613071 204.585363,447.506245 C205.825546,440.39942 209.48715,426.361392 199.823704,427.301558 C190.160259,428.241724 173.72466,429.392718 167.888006,426.361392 C163.996903,424.340508 162.73648,420.163828 164.106736,413.831351 C163.740128,410.085203 163.06598,408.540206 162.084292,409.196359 C160.611759,410.180589 161.092932,418.299898 161.26167,423.792447 C161.430409,429.284997 158.241131,428.158059 160.04924,432.146642 C161.85735,436.135226 165.49464,436.965102 164.106736,438.601882 C162.718831,440.238663 160.017807,439.984259 158.400716,438.081677 C156.783624,436.179095 154.7503,430.472729 157.520063,423.792447 C158.672044,417.863976 156.876888,413.53567 156.338721,412.039994 C155.800554,410.544318 155.931814,407.500635 152.552554,411.165214 C149.173294,414.829792 149.267935,414.506684 149.485975,415.14403 C149.631334,415.568927 149.704014,416.3448 149.704014,417.471648 C148.380316,424.473483 147.089128,427.971502 145.830448,427.965704 C143.942429,427.957008 141.40112,424.459058 145.057268,416.376481 C148.713415,408.293904 151.248791,405.592741 153.793756,404.624919 C156.338721,403.657097 155.842043,399.570875 149.704014,400.775165 C145.830448,402.807302 142.852232,407.358384 139.020286,403.30902 C135.188341,399.259656 134.252407,390.320244 136.994983,388.184161 C139.737559,386.048078 137.204947,380.682195 135.410935,379.068951 C133.616924,377.455707 134.539399,374.028574 139.020286,370.523377 C143.501174,367.01818 142.969638,365.379053 139.020286,364.450573 C136.387385,363.831587 134.509178,362.689075 133.385664,361.023039 C132.494124,358.860611 131.118127,358.021797 129.257672,358.506598 C126.46699,359.233798 123.10441,350.421631 129.257672,350.401345 C135.410935,350.38106 140.248359,350.890254 147.45103,356.304968 C152.252811,359.914778 151.45489,355.372778 145.057268,342.67897 C135.576566,322.724946 125.305984,312.823538 114.24552,312.974747 C103.185056,313.125957 96.3694844,315.91334 93.7988052,321.336896 C90.1841025,324.25798 86.1006403,322.713853 81.5484187,316.704517 C74.7200862,307.690513 65.1785847,304.905659 66.1601807,297.197403 C67.1417767,289.489147 77.0848272,280.062741 87.0735732,280.486852 C97.0623192,280.910963 111.381283,283.295772 116.190446,282.179765 C120.99961,281.063757 123.574265,276.317538 117.230304,277.130519 C110.886344,277.9435 94.4839518,265.675805 96.0570187,256.048053 C97.6300855,246.420302 97.9699456,244.154377 89.2626722,247.330498 C80.5553988,250.50662 44.8938601,256.606008 47.7998142,224.271875 C48.536582,217.226698 51.8017221,210.627991 57.5952342,204.475757 C60.8347588,201.860868 59.9185493,199.019261 54.8466055,195.950936 C47.2386899,191.348449 44.025609,185.466545 47.2386899,174.016902 C50.4517708,162.56726 56.4040231,152.357842 72.8333477,154.229558 C89.2626722,156.101274 100.053447,151.243319 112.232287,128.67936 C124.411126,106.115402 154.393986,110.536306 162.084292,114.442066 C169.774598,118.347825 176.388235,129.935124 172.13812,145.33587 C171.842214,146.811106 171.694261,148.175104 171.694261,149.427865 C188.564631,165.701897 200.089275,175.42669 206.268191,178.602244 Z" id="body-copy-2" fill="#000000"></path>
            <path d="M297.776436,118.647744 C359.908471,118.647744 422.91552,93.063152 423.270284,72.3024171 C424.107759,43.29456 363.865634,31.9424521 301.7336,31.9424521 C239.601566,31.9424521 181.203069,51.4421098 181.26199,82.0249314 C183.939542,104.493096 235.644402,118.647744 297.776436,118.647744 Z" id="pizza-back-copy" transform="translate(302.270430, 75.295098) rotate(16.000000) translate(-302.270430, -75.295098) "></path>
            <path d="M302.173003,186.081445 C332.272522,186.081445 342.377164,116.647016 338.792178,72.3503925 C335.207193,28.0537685 325.510665,-39.9927789 299.351737,-39.9460867 C274.656848,-41.3863627 270.283312,9.6948804 267.874355,51.5517986 C266.752049,71.052471 263.927935,95.3035996 268.183654,122.35377 C273.062559,153.365021 286.096515,186.081445 302.173003,186.081445 Z" id="pizza-front-copy" transform="translate(302.697914, 73.052788) rotate(-75.000000) translate(-302.697914, -73.052788) "></path>
            <path d="M192.682377,350.37908 C186.297715,344.396306 179.12964,348.624704 171.17815,363.064275 C170.278322,366.180917 168.692217,406.626632 168.064028,412.999638 C167.645235,417.248309 169.280881,419.466081 172.970968,419.652954 C235.640953,419.373443 274.068479,418.19468 288.253545,416.116663 C309.531145,412.999638 332.702865,409.585937 338.451012,406.503444 C342.283111,404.448448 344.19916,401.599298 344.19916,397.955993 C353.456759,363.407966 355.479503,337.903563 350.267392,321.442782 C342.449225,296.751611 321.513307,289.462799 310.535599,289.27202 C299.557891,289.081241 287.348038,294.855886 285.431199,296.382872 C283.514361,297.909858 280.407429,301.265215 290.340454,304.703892 C296.962471,306.996344 300.754775,308.6299 301.717367,309.604559 C303.117008,311.09864 302.966253,312.021008 301.265103,312.371661 C298.713378,312.897641 273.789522,316.746872 266.618614,316.717229 C259.447707,316.687585 249.013454,313.041075 246.093758,311.41226 C241.321665,309.604559 236.58747,311.41226 228.341373,315.99176 C226.987556,316.475406 215.101224,327.937846 192.682377,350.37908 Z" id="Belly-Copy" fill="#FFFFFF"></path>
            <path d="M295.222838,423.267401 C247.122181,424.241626 221.419585,424.58343 218.11505,424.292812 C214.810515,424.002194 212.808162,427.964879 212.107991,436.180867 C209.591337,463.615011 208.734249,482.169464 209.536726,491.844228 C210.176677,495.489575 207.906038,500.139712 202.72481,505.794638 L190.566606,518.058349 C187.420189,521.461408 189.013288,522.249797 195.345903,520.423517 C201.678518,518.597236 209.830069,515.621473 219.800556,511.496225 C226.17312,488.377486 236.586226,470.351602 251.039876,457.418575 C265.493525,444.485548 276.367124,440.390326 283.660672,445.13291 C286.951846,447.611799 288.637383,453.004957 288.717284,461.312385 C288.767188,464.970933 290.935706,466.800207 295.222838,466.800207 L327.452707,466.800207 L309.096196,453.822158 C301.449842,448.722828 297.226028,441.498305 296.424752,432.148587 C296.218325,430.615453 295.817687,427.655057 295.222838,423.267401 Z" id="Legs-Copy" fill="#FFFFFF"></path>
            <path d="M205.432529,292.771641 C169.689025,291.310685 147.533413,286.914739 138.965693,279.583801 C135.184917,276.495268 132.272263,276.495268 130.22773,279.583801 C126.783819,287.4142 122.251235,291.38816 116.629977,291.505681 C111.008719,291.623201 104.196677,290.890447 96.1938494,289.307418 C89.1078741,287.694055 83.6982719,288.066435 79.9650429,290.424556 C76.2318139,292.782678 73.5225984,295.016109 71.8373965,297.124848 C70.3911754,298.969452 70.8182206,300.90851 73.1185321,302.942024 C75.4188436,304.975538 79.5661771,308.406655 85.5605325,313.235374 C89.1423425,315.573903 93.0627892,315.704036 97.3218729,313.625774 C103.710498,310.50838 120.963871,306.937092 130.22773,313.625774 C136.403637,318.084895 143.082542,328.372015 150.264447,344.487133 C156.109868,353.970287 162.383206,356.81884 169.084462,353.032792 C175.785718,349.246744 187.61535,342.459501 204.57336,332.671062 L189.904119,333.176599 C194.41731,330.161842 196.400794,327.257022 195.854571,324.462139 C195.035237,320.269814 191.645739,309.733817 195.854571,304.761329 C200.063403,299.788842 204.031016,300.202149 205.432529,298.586675 C208.497597,295.136065 208.497597,293.19772 205.432529,292.771641 Z" id="left-chest-copy" fill="#FFFFFF"></path>
            <path d="M252.742131,182.267401 C252.852019,191.858754 251.500919,195.257836 266.372082,223.91436 C269.841057,231.077402 274.20971,239.924962 279.478042,250.457041 C278.02893,262.814606 272.791084,269.82797 263.764505,271.49713 C260.857112,272.145815 260.017489,273.852568 261.245636,276.617387 C264.176867,277.341714 267.796209,276.66942 272.103661,274.600504 C276.411114,272.531588 280.435254,273.203883 284.176081,276.617387 C288.740916,279.44772 291.070811,281.252085 291.165766,282.030482 C291.308199,283.198076 287.947308,289.821363 274.596472,288.695618 C268.044226,283.827944 261.027404,279.587325 255.586131,279.065424 C250.144859,278.543523 245.790645,277.739893 247.705219,271.49713 C248.859449,269.962406 253.741894,265.1299 254.664013,261.236745 C255.586131,257.343591 260.519887,231.780919 241.907706,213.80479 C238.954575,210.870292 235.053662,208.745085 235.542661,203.847037 C236.03166,198.948988 236.427492,194.672387 233.971921,193.305607 C232.938527,191.507071 231.614553,189.886642 230,188.444322 C243.285398,187.402534 250.866108,185.34356 252.742131,182.267401 Z" id="right-chest-copy" fill="#FFFFFF"></path>
            <path d="M134.900846,212.240402 C119.210223,224.604412 110.542466,232.368935 108.897575,235.533969 C106.430238,240.281521 101.207307,255.8719 105.87199,263.165648 C110.536674,270.459395 115.550652,271.705538 121.938194,270.459395 C128.325736,269.213252 132.932056,268.596195 140.293523,271.705538 C147.654991,274.814881 161.31248,281.397428 188.238965,284.569335 C201.394719,287.07643 220.896383,283.139091 229.807224,279.8128 C254.151177,270.725546 253.295071,254.970828 251.855238,249.30619 C251.696829,248.68297 251.618279,245.335114 247.910447,247.842143 C244.351512,253.122249 232.535118,264.175293 217.182086,269.113498 C204.509834,273.189447 189.257886,279.539056 186.984497,271.12997 C186.533192,269.460627 200.268781,269.113498 212.459224,266.097794 C224.446835,263.132267 237.310705,254.184521 242.69631,245.313845 C248.306821,236.072725 251.444119,232.708777 242.69631,223.821192 C230.833493,211.768825 229.52455,217.831081 217.904651,206.756709 C213.811337,203.508005 209.557734,205.776059 201.435853,209.682895 C200.408446,210.177104 197.133213,211.558936 204.328089,214.947944 C206.09282,216.338805 211.266353,217.209694 209.553127,224.908664 C208.98108,227.479352 213.607156,230.159891 220.332267,225.319936 C226.290609,223.258971 227.179111,223.07807 226.634225,224.309459 C225.294379,227.33738 223.54975,231.76197 214.192318,233.497438 C208.222158,234.604689 209.968144,238.462936 203.913785,240.299566 C197.870246,242.132914 192.483646,241.928401 187.45612,240.807277 C185.020197,240.264073 189.963056,237.220642 195.451383,237.129878 C200.939709,237.039114 201.994767,234.594343 203.913785,232.985163 C206.307004,230.978344 203.913785,228.669781 197.927679,229.413977 C195.750049,229.691298 200.589754,223.925792 197.514389,221.562777 C191.993051,217.320352 188.83475,217.90583 184.835494,214.947944 C183.415454,214.237265 183.417726,208.538957 192.57729,202.892505 C197.927679,204.621282 201.378411,202.266065 202.560461,199.299899 C205.342462,193.429445 199.09256,188.099037 195.451383,187.028536 C189.248638,185.204939 176.115489,187.028536 166.85338,188.626695 C161.489078,189.552295 159.605219,194.215987 158.875301,195.502344 C153.226307,205.457743 146.488164,218.933233 138.168481,224.908664 C132.622026,228.892284 133.142134,224.140249 139.728807,210.652558 C140.17934,208.433464 139.803078,207.932427 138.600021,209.149445 C137.396964,210.366464 136.163905,211.396783 134.900846,212.240402 Z" id="Face-Copy" fill="#FFFFFF"></path>
            <path d="M165.56191,222.796406 C168.047191,222.796406 170.177446,217.970797 170.177446,214.380946 C170.177446,212.568326 169.589578,210.209474 168.389566,208.87842 C167.212985,207.573353 165.436292,207.278221 164.205902,207.278221 C161.720621,207.278221 161.177446,210.791095 161.177446,214.380946 C161.177446,217.970797 163.076629,222.796406 165.56191,222.796406 Z" id="Eye-Copy" fill="#000000" transform="translate(165.677446, 215.037313) rotate(18.000000) translate(-165.677446, -215.037313) "></path>
            <path d="M179.004824,173.067506 C165.759595,180.342783 157.438838,184.591143 154.042552,185.812587 C148.948122,187.644753 120.793565,215.045969 116.692389,218.021041 C113.958272,220.004422 108.465224,225.11252 100.213244,233.345335 C98.6996231,234.718344 97.710693,235.082297 97.2464537,234.437195 C92.13808,227.33865 93.056326,221.20846 87.4394743,220.641629 C81.8226226,220.074798 90.3766035,232.546196 88.6783468,238.096373 C87.6420194,241.483258 79.6843976,240.658193 78.0791025,240.621535 C66.4404115,240.355755 44.1752434,237.193766 58.0777533,216.106664 C64.2944981,205.898391 67.80079,200.52192 71.6257051,198.350491 C74.1756485,196.902872 73.5813645,195.178314 69.8428529,193.176818 C55.4155332,189.846847 50.2568728,183.052747 54.3668717,172.794519 C60.5318702,157.407178 73.3620815,157.97495 74.271475,167.279704 C74.8777374,173.482873 77.8228055,173.482873 83.1066792,167.279704 C90.1147912,161.609969 99.8474105,159.225326 112.304537,160.125776 C116.786024,160.519942 118.248641,159.259504 116.692389,156.344462 C109.489779,149.736585 109.194967,142.921723 115.807954,135.899876 C125.727435,125.367105 153.936032,107.446419 165.782753,126.992448 C169.816035,133.908252 168.545881,144.952695 161.972293,160.125776 C161.975922,163.994473 163.680286,164.778606 167.085386,162.478177 C170.490486,160.177748 174.320555,160.724772 178.575591,164.119252 C180.321741,165.365767 181.428897,166.86177 181.897061,168.60726 C182.365225,170.352751 181.401146,171.8395 179.004824,173.067506 Z" id="hat-copy" fill="#FFFFFF"></path>
            <path d="M208.066393,139.842819 C212.546795,139.363245 220.172058,139.135631 224.168249,139.842819 C228.16444,140.550007 236.002632,139.586608 226.401881,134.520747 C216.801129,129.454886 209.040998,123.471613 208.862849,120.540068 C208.684699,117.608523 208.71175,117.155227 217.938813,121.319134 C224.090188,124.095072 231.872475,128.194443 241.285673,133.617247 C243.813773,134.713452 244.865152,136.788643 244.439808,139.842819 C243.801794,144.424082 253.684261,140.749024 255.124142,139.842819 C256.564023,138.936614 271.19972,138.084897 262.446821,153.912766 C257.155665,158.10411 253.290864,159.203149 253.326803,170.666549 C253.362742,182.129948 232.596924,182.71077 226.839719,182.129948 C221.082514,181.549127 217.398181,170.610128 216.787604,164.695255 C216.177026,158.780382 210.344079,151.330307 206.313494,150.273776 C202.28291,149.217245 203.936879,141.747975 208.066393,139.842819 Z" id="Path-3-Copy" fill="#000000"></path>
            <path d="M150.146853,394.269618 C155.832372,394.269618 161.129293,391.623708 161.129293,389.529044 C161.129293,387.434379 156.164998,386.938974 150.479479,386.938974 C149.264697,386.938974 145.767852,384.906717 144.685814,385.049061 C140.703612,385.572927 137.975782,389.704576 137.975782,391.351689 C137.975782,392.408534 137.050795,394.612779 139.417005,395.079881 C141.74062,395.538574 147.329912,394.269618 150.146853,394.269618 Z" id="Oval-Copy" fill="#FFFFFF" transform="translate(149.463495, 390.110872) rotate(-35.000000) translate(-149.463495, -390.110872) "></path>
            <path d="M149.647932,379.371052 C155.564157,379.371052 162.689328,376.374946 159.598044,373.92663 C156.50676,371.478314 156.617589,369.987769 150.701364,369.987769 C144.785139,369.987769 138.155367,373.010193 138.155367,375.672494 C138.155367,377.161529 140.946483,379.43659 143.303954,380.32084 C145.161491,381.017574 147.040674,379.371052 149.647932,379.371052 Z" id="Oval-2-Copy" fill="#FFFFFF" transform="translate(149.250289, 375.240246) rotate(-29.000000) translate(-149.250289, -375.240246) "></path>
            <path d="M137.514004,367.997198 C138.894716,367.997198 138.942132,364.236949 138.942132,359.818671 C138.942132,358.185161 141.117022,355.166015 140.977029,353.23901 C140.738372,349.953901 138.024151,347.982943 137.153911,347.982943 C136.223377,347.982943 137.383251,350.780572 137.059463,354.382931 C136.902819,356.125695 135.481019,356.475634 135.481019,357.916202 C135.481019,362.33448 136.133292,367.997198 137.514004,367.997198 Z" id="Oval-3-Copy" fill="#FFFFFF" transform="translate(138.232264, 357.990070) rotate(-65.000000) translate(-138.232264, -357.990070) "></path>
            <path d="M215.536097,146.987118 C224.092857,146.149417 230.559603,146.149417 234.936335,146.987118 C241.501434,148.243671 249.035474,149.500223 250.292026,148.243671 C251.548579,146.987118 257.885667,145.278207 258.344852,146.987118 C258.804036,148.69603 259.875465,152.482378 254.713362,154.399473 C249.551258,156.316569 248.620036,162.924582 250.292026,164.935066 C251.964017,166.945549 249.728993,172.193906 241.916339,175.157818 C234.103686,178.121731 224.947209,178.514174 222.580547,169.821313 C220.213884,161.128452 218.60829,151.763259 215.536097,150.579307 C213.487968,149.790006 213.487968,148.59261 215.536097,146.987118 Z" id="right-hand-copy" fill="#FFFFFF"></path>
            <path d="M50.0381861,297.973324 C44.7717976,300.700989 38.1422399,303.725959 27.6291895,303.025855 C17.1161392,302.325752 16.0739407,306.041852 17.6080804,308.123899 C19.14222,310.205945 21.3543148,312.04564 19.2144929,315.248648 C27.339751,319.01162 39.1772144,321.1311 51.4029815,319.666632 C63.6287486,318.202165 65.9570489,313.649671 68.9340103,313.594204 C71.9109717,313.538737 79.4287971,316.815356 68.9340103,321.666024 C58.4392235,326.516692 33.8145237,330.536706 12.9297966,322.696225 C-7.95493056,314.855743 2.09950132,288.817308 4.74568926,286.877311 C7.39187719,284.937314 8.3943441,283.661651 19.2144929,289.695103 C30.0346418,295.728555 40.1051581,295.197002 44.3047995,294.622009 C48.5044409,294.047017 52.8136581,295.969024 50.0381861,297.973324 Z" id="left-hand-background-copy" fill="#000000"></path>
            <path d="M50.8743487,297.267401 C44.0878054,300.525623 35.2678484,302.135347 24.4144779,302.096572 C13.5611074,302.057798 11.1908063,304.800747 17.3035745,310.325418 C18.0709107,313.629405 18.0709107,315.350274 17.3035745,315.488026 C16.1525702,315.694652 31.2277852,321.980697 45.7132912,321.694481 C60.1987972,321.408264 65.5969845,315.700551 67.7369851,313.818973 C69.1636521,312.564587 63.5427734,307.047396 50.8743487,297.267401 Z" id="left-hand-copy" fill="#FFFFFF"></path>
            <g id="specs-copy" transform="translate(225.000000, 118.267401)" fill="#000000">
                <path d="M59,31 C62.3137085,31 66.1525608,27.5957862 66.1525608,25.6627896 C66.1525608,23.729793 62.3137085,24 59,24 C55.6862915,24 53,25.5670034 53,27.5 C53,29.4329966 55.6862915,31 59,31 Z" id="Oval-4"></path>
                <path d="M56.5015908,14.981542 C62.0244383,14.981542 73.5776496,13.2483622 73.5776496,11.0392232 C73.5776496,8.83008417 73.3387116,8.83168868 67.8158641,8.83168868 C62.2930166,8.83168868 53.0966757,6.53258232 53.0966757,8.74172132 C53.0966757,10.9508603 50.9787433,14.981542 56.5015908,14.981542 Z" id="Oval-5" transform="translate(63.137645, 11.382109) rotate(13.000000) translate(-63.137645, -11.382109) "></path>
                <path d="M119,19 C123.418278,19 127,16.9852814 127,14.5 C127,12.0147186 123.418278,11.9879557 119,11.9879557 C114.581722,11.9879557 111.011699,9.50267433 111.011699,11.9879557 C111.011699,14.4732371 114.581722,19 119,19 Z" id="Oval-6"></path>
                <path d="M151.479137,20.1870944 C161.696405,20.1870944 167.835274,16.7290965 167.835274,14.2438151 C167.835274,11.7585338 161.696405,14.2438151 151.479137,14.2438151 C141.261869,14.2438151 132.29701,11.7585338 132.29701,14.2438151 C132.29701,16.7290965 141.261869,20.1870944 151.479137,20.1870944 Z" id="Oval-7" transform="translate(150.066142, 16.663170) rotate(-7.000000) translate(-150.066142, -16.663170) "></path>
                <path d="M12.0756138,9.43916136 C18.6226149,9.43916136 22.5562673,7.22335218 22.5562673,5.63083838 C22.5562673,4.03832459 18.6226149,5.63083838 12.0756138,5.63083838 C5.52861263,5.63083838 -0.215872526,4.03832459 -0.215872526,5.63083838 C-0.215872526,7.22335218 5.52861263,9.43916136 12.0756138,9.43916136 Z" id="Oval-7-Copy" transform="translate(11.170197, 7.181108) rotate(27.000000) translate(-11.170197, -7.181108) "></path>
            </g>
            <path d="M214.174646,306.878672 C210.356128,302.353613 206.079159,302.081107 201.343738,306.061153 C194.240608,312.031222 200.653367,318.611551 200.713144,322.10628 C200.772921,325.601008 201.194052,327.494997 200.713144,328.392626 C200.232236,329.290255 213.523473,323.79203 221.30056,315.335351 C229.077648,306.878672 221.591849,303.863381 218.55745,305.706903 C216.534517,306.935917 215.073582,307.326507 214.174646,306.878672 Z" id="tie-left-copy" fill="#FF8700"></path>
            <path d="M248.189097,296.554002 C246.218423,296.085292 243.610463,300.686259 250.341924,305.76106 C257.073384,310.835861 266.905238,313.687953 269.899279,313.677689 C272.89332,313.667425 274.567668,313.351205 278.542689,311.770981 C282.51771,310.190756 284.481198,310.940249 284.923425,309.758356 C285.365652,308.576463 283.976732,303.905672 278.542689,303.492927 C273.108647,303.080181 262.495415,293.962879 261.814932,291.33878 C261.134448,288.714681 253.737136,287.632152 253.863143,293.962879 C253.98915,300.293605 251.08568,296.283035 248.189097,296.554002 Z" id="tie-right-copy" fill="#FF8700"></path>
            <path d="M233.386059,298.469436 C240.655933,298.469436 238.970356,293.61686 238.970356,291.303719 C238.970356,288.990577 235.604414,284.98866 229.082123,287.359118 C222.559832,289.729576 217.367516,289.835418 217.367516,292.148559 C217.367516,294.461701 226.116186,298.469436 233.386059,298.469436 Z" id="tie-middle-copy" fill="#FF8700" transform="translate(228.253524, 292.551591) rotate(-20.000000) translate(-228.253524, -292.551591) "></path>
            <path d="M220.335582,238.035184 C211.842547,245.032407 205.238758,248.447569 200.524215,248.280669 C193.452402,248.030319 190.699696,245.04984 188.338804,246.091536 C185.977913,247.133231 183.617022,259.477255 185.977913,260.562676 C188.338804,261.648097 193.462807,258.312384 198.065299,257.158946 C202.667791,256.005507 219.545665,248.708207 226.434289,242.109657 C233.179162,238.035184 232.84279,236.052675 235.630362,236.087541 C238.417934,236.122407 236.239375,231.947908 231.92484,232.412313 C227.610305,232.876718 224.827877,233.166792 223.187457,232.412313 C221.547036,231.657834 219.927763,234.008722 220.335582,235.786035 C220.607462,236.970911 220.607462,237.720627 220.335582,238.035184 Z" id="smile-copy" fill="#000000"></path>
            <path d="M143.911043,300.300569 C156.082555,306.939661 165.394508,310.21599 171.846902,310.129556 C181.525493,309.999904 180.501955,310.028663 181.876731,308.598255 C183.251506,307.167847 182.024769,303.110467 176.036291,303.645102 C170.047813,304.179737 153.990375,298.655175 149.980141,296.218673 C145.969907,293.78217 141.795605,293.456863 142.007762,296.218673 C142.149199,298.059879 142.783627,299.420511 143.911043,300.300569 Z" id="Path-2-Copy" fill="#000000"></path>
            <path d="M303.377915,40.91528 C241.046287,40.91528 190.338254,58.5779633 190.338254,80.286365 C190.338254,90.4563235 201.396651,100.072372 221.521608,107.427976 L221.521608,111.511708 C221.521608,113.757218 226.768208,115.584579 233.215367,115.584579 C234.174255,115.584579 235.094164,115.532989 235.986787,115.456962 C236.251846,115.433883 236.501313,115.4013 236.758575,115.37279 C237.397834,115.300836 238.009807,115.213948 238.598393,115.105338 C238.832268,115.063252 239.062246,115.023881 239.284427,114.976364 C240.017236,114.820237 240.70327,114.643746 241.319141,114.437387 C241.342528,114.429241 241.369814,114.423811 241.389303,114.417023 C242.055848,114.1903 242.621046,113.932351 243.116082,113.655396 C243.143367,113.640462 243.186244,113.628243 243.21353,113.61331 C261.233611,117.573498 281.923767,119.65745 303.377915,119.65745 C365.709543,119.65745 416.417576,101.994767 416.417576,80.286365 C416.417576,58.5779633 365.709543,40.91528 303.377915,40.91528 L303.377915,40.91528 L303.377915,40.91528 L303.377915,40.91528 L303.377915,40.91528 L303.377915,40.91528 L303.377915,40.91528 L303.377915,40.91528 L303.377915,40.91528 Z M348.913409,71.1862139 C347.046306,71.5582028 346.395353,72.3877108 347.463383,73.0380125 C348.535311,73.6896718 350.91694,73.9177526 352.780145,73.5430485 C353.247895,73.4493725 353.840379,73.505035 354.109335,73.6693075 C355.270915,74.377987 357.157508,74.8870959 359.414404,75.102958 C361.675197,75.3174626 364.041234,75.2129255 366.07205,74.8069961 C366.535902,74.7146777 367.136182,74.7716979 367.40124,74.9332551 C369.018877,75.9188898 371.981296,76.4714426 375.029469,76.4714426 C376.502882,76.4714426 377.999683,76.3424684 379.367853,76.069586 C381.234956,75.6989548 381.885909,74.8680891 380.817879,74.2177874 C379.753747,73.5674857 377.376016,73.3407626 375.501117,73.7127514 C375.037265,73.8050698 374.436985,73.7480496 374.171926,73.5864924 C371.76691,72.1243318 366.399475,71.6165806 362.205314,72.4501615 C361.91297,72.5085393 361.640116,72.4990359 361.468607,72.4827444 C361.293201,72.4650953 361.047632,72.4243666 360.880021,72.3225448 C359.718441,71.6138653 357.831848,71.1061141 355.571055,70.8902519 C353.31416,70.677105 350.952021,70.781642 348.913409,71.1862139 L348.913409,71.1862139 L348.913409,71.1862139 L348.913409,71.1862139 L348.913409,71.1862139 L348.913409,71.1862139 L348.913409,71.1862139 L348.913409,71.1862139 L348.913409,71.1862139 Z M282.796901,62.582953 C283.159407,62.6196088 283.52971,62.6372579 283.888318,62.6372579 C285.576117,62.6372579 287.131387,62.2530505 287.626423,61.6597689 C287.778442,61.479205 288.312457,61.3692375 288.834778,61.4276153 C293.481098,61.9014259 298.353497,60.9673809 299.709973,59.3518088 C299.861992,59.1712449 300.392109,59.062635 300.922226,59.1196552 C303.175223,59.3477359 305.54126,59.2567751 307.591566,58.8657795 C309.645769,58.4734263 311.138672,57.8258398 311.793523,57.042491 C312.3977,56.3229505 311.208835,55.5681118 309.142938,55.3590377 C307.080938,55.1458908 304.917593,55.5626813 304.309518,56.2822218 C304.157499,56.4641434 303.619586,56.5632499 303.101163,56.5130178 C298.454843,56.0364919 293.578546,56.9732522 292.225968,58.5901819 C292.073949,58.7707459 291.532138,58.8739253 291.017613,58.820978 C286.379089,58.3430944 281.498894,59.2812124 280.142418,60.8981421 C279.542138,61.6190402 280.731004,62.373879 282.796901,62.582953 L282.796901,62.582953 L282.796901,62.582953 L282.796901,62.582953 L282.796901,62.582953 L282.796901,62.582953 L282.796901,62.582953 L282.796901,62.582953 L282.796901,62.582953 Z M235.542424,85.2566251 C237.460201,85.7236476 239.783361,85.898781 242.094827,85.7630187 C242.624944,85.7182171 243.131673,85.8539795 243.225223,86.0399739 C243.973624,87.5197836 247.684443,88.5637962 251.859115,88.5637962 C252.358048,88.5637962 252.868676,88.5488623 253.375405,88.5189946 C255.495874,88.3886628 256.914716,87.6867713 256.544414,86.9468665 C256.174112,86.2083192 254.166683,85.7250052 252.034521,85.8431185 C251.496608,85.8797743 250.997675,85.7535153 250.904125,85.5688785 C250.066072,83.9112201 245.521098,82.7871077 240.746147,83.0885001 C240.426517,83.1020764 240.169255,83.0681358 240.021134,83.0328376 C239.869115,82.9961817 239.682015,82.9283006 239.619648,82.8129026 C239.214264,82.0078317 237.935747,81.3086556 236.017971,80.8402754 C234.100194,80.3705377 231.773136,80.1899737 229.46167,80.3338818 C227.341202,80.4642137 225.926257,81.1674627 226.300458,81.90601 C226.674658,82.6445572 228.701576,83.1414475 230.818146,83.0070427 C231.137775,82.9907512 231.395038,83.0274071 231.547057,83.0627053 C231.699076,83.0993611 231.886176,83.1672423 231.948543,83.2826403 C232.34613,84.0863535 233.624648,84.7868873 235.542424,85.2566251 L235.542424,85.2566251 L235.542424,85.2566251 L235.542424,85.2566251 L235.542424,85.2566251 L235.542424,85.2566251 L235.542424,85.2566251 L235.542424,85.2566251 L235.542424,85.2566251 Z M262.531618,81.5896837 C262.894125,81.6263395 263.264427,81.6439886 263.623035,81.6439886 C265.310835,81.6439886 266.866104,81.2597811 267.36114,80.6664996 C267.509261,80.4859357 268.043276,80.3773258 268.569495,80.434346 C273.208019,80.9122295 278.092112,79.9741116 279.44469,78.3585395 C279.596709,78.1779755 280.126826,78.0720809 280.653045,78.1263858 C285.295467,78.5988388 290.171764,77.6647938 291.52824,76.0505793 C292.132418,75.3310388 290.943552,74.5762001 288.877655,74.367126 C286.823451,74.1621249 284.648412,74.5707696 284.044235,75.2903101 C283.950685,75.4029928 283.740197,75.4627283 283.576485,75.492596 C283.41667,75.5224637 283.155509,75.5536891 282.83588,75.5211061 C278.18956,75.0486531 273.317161,75.9826981 271.960685,77.5982702 C271.808666,77.7788342 271.259059,77.8820136 270.748432,77.8290662 C266.109908,77.353898 261.229713,78.2893007 259.873237,79.9062304 C259.276855,80.6257709 260.461823,81.3806096 262.531618,81.5896837 L262.531618,81.5896837 L262.531618,81.5896837 L262.531618,81.5896837 L262.531618,81.5896837 L262.531618,81.5896837 L262.531618,81.5896837 L262.531618,81.5896837 L262.531618,81.5896837 Z M366.083744,83.0328376 C358.857001,82.8047568 352.561861,83.7713848 350.071091,85.4752025 C348.469046,86.5708047 348.866634,87.8089575 351.111835,88.7077043 C352.066826,89.0891965 354.191192,90.0395331 353.353139,90.6287417 C352.554066,91.1880827 349.221345,91.6551052 346.523984,91.5926545 C343.951358,91.5315614 342.084254,91.3211298 341.406016,91.0143068 C340.848614,90.7604312 340.778451,90.274402 341.199427,89.5249937 C341.292977,89.3552908 341.729544,88.9371427 342.11154,88.5692267 C343.694095,87.0473306 345.487138,85.321791 343.432934,84.0754925 C342.536413,83.5310854 341.016224,83.1658847 339.129631,83.0450562 L338.537148,83.0124732 C336.401088,82.9106515 334.580759,83.4428399 334.292313,84.1841024 C334.062336,84.7773839 335.04851,85.3353672 336.541413,85.5878852 C336.342619,86.1458685 335.282385,87.1640863 334.783451,87.6433274 C334.233845,88.1728006 333.758298,88.6303198 333.547811,89.0050239 C332.990408,89.9988044 332.561637,91.460965 335.227814,92.6678924 C337.356078,93.6331628 340.981143,94.1816427 345.997765,94.3011136 C346.340782,94.3092594 346.687697,94.3133322 347.042408,94.3133322 C352.055132,94.3133322 357.968276,93.4987581 360.338211,91.8356691 C361.550464,90.9857967 362.727635,89.2168132 356.997694,86.9251445 C356.89245,86.8830582 356.810594,86.8504752 357.021081,86.7065671 C357.711013,86.2354717 360.533107,85.5933157 365.409404,85.7372238 C367.561055,85.8105355 369.44375,85.2498369 369.63085,84.503144 C369.814053,83.7578086 368.227599,83.0980035 366.083744,83.0328376 L366.083744,83.0328376 L366.083744,83.0328376 L366.083744,83.0328376 L366.083744,83.0328376 L366.083744,83.0328376 L366.083744,83.0328376 L366.083744,83.0328376 L366.083744,83.0328376 Z M280.32562,88.4497558 C272.802636,88.2121717 268.846247,89.1204219 266.854411,89.9146317 C264.47668,90.8636106 263.61524,92.1818631 264.492271,93.5326986 C265.981277,95.8243673 265.599281,97.5132511 263.38916,98.4119979 C261.190734,99.3066719 257.347385,99.3188905 255.799911,99.2822347 C254.158887,99.2442212 252.985614,99.0405777 252.108582,98.642794 C250.073868,97.7209675 249.929645,95.9234738 250.479251,94.941912 C250.888533,94.20608 249.512567,93.4933276 247.399895,93.3494195 C245.271631,93.2014385 243.236917,93.6847525 242.827636,94.4219421 C242.087031,95.7469828 241.907727,98.4744486 245.930379,100.297737 C248.175581,101.31324 251.406956,101.899733 255.273692,101.990694 C255.768728,102.001555 256.259866,102.008343 256.743208,102.008343 C261.896257,102.008343 266.421742,101.355326 269.313998,100.176909 C273.246998,98.577628 274.182499,96.139336 272.10101,92.932629 C271.910012,92.6407399 271.742401,92.0949752 272.732473,91.6985491 C273.866768,91.2451029 276.318559,91.0496051 279.655178,91.1541421 C281.799033,91.2233809 283.689524,90.6667552 283.876624,89.9200622 C284.059827,89.1720116 282.473373,88.5149218 280.32562,88.4497558 L280.32562,88.4497558 L280.32562,88.4497558 L280.32562,88.4497558 L280.32562,88.4497558 L280.32562,88.4497558 L280.32562,88.4497558 L280.32562,88.4497558 L280.32562,88.4497558 Z M229.317447,111.511708 L229.317447,106.325586 L229.317447,97.88524 L228.666495,97.5431188 C218.890513,92.4208049 213.72577,86.4540491 213.72577,80.286365 C213.72577,71.3084 224.526904,62.9549419 243.579934,57.0289148 C245.279427,59.2513446 248.927879,61.1275805 255.273692,61.2769191 C259.853747,61.3923171 264.846982,60.6035378 268.206989,59.2336955 C271.535812,57.8801448 274.903614,55.3576801 272.198458,51.0092117 C282.188825,49.7153963 292.662535,49.0610218 303.377915,49.0610218 C352.811328,49.0610218 393.03006,63.0676246 393.03006,80.286365 C393.03006,93.9236943 367.985928,105.87757 330.710126,110.029183 L326.831696,110.460908 L328.242743,111.791379 C328.484414,112.018102 328.901491,112.360223 329.735646,112.692841 C330.690636,113.074333 332.815002,114.023312 331.976949,114.613878 C331.177876,115.174577 327.849053,115.638884 325.147795,115.577791 C322.575168,115.516698 320.708064,115.306266 320.029826,114.999443 C319.472424,114.745568 319.402261,114.258181 319.819339,113.51013 C319.990847,113.203307 320.092193,112.8992 320.123377,112.60188 L320.287089,110.990381 L315.703136,111.207601 C311.512873,111.411244 307.365486,111.511708 303.377915,111.511708 C281.292304,111.511708 260.068133,108.685136 243.611117,103.554676 L237.113286,101.527744 L237.113286,108.909144 L237.113286,111.511708 C237.113286,112.261116 235.36312,112.869332 233.215367,112.869332 C231.067613,112.869332 229.317447,112.261116 229.317447,111.511708 L229.317447,111.511708 L229.317447,111.511708 L229.317447,111.511708 L229.317447,111.511708 L229.317447,111.511708 L229.317447,111.511708 L229.317447,111.511708 L229.317447,111.511708 Z M244.909125,110.73379 L244.909125,107.434765 C261.720851,111.832107 282.184927,114.226955 303.377915,114.226955 C306.12205,114.226955 308.928552,114.183512 311.766237,114.096624 C311.664892,114.917986 312.058581,115.843885 313.847726,116.655744 C313.925685,116.6924 314.042622,116.716837 314.128377,116.752135 C310.592964,116.878394 307.006878,116.942203 303.377915,116.942203 C282.411007,116.942203 262.254866,114.787654 244.909125,110.73379 L244.909125,110.73379 L244.909125,110.73379 L244.909125,110.73379 L244.909125,110.73379 L244.909125,110.73379 L244.909125,110.73379 L244.909125,110.73379 L244.909125,110.73379 Z M337.916563,113.178136 C375.718585,108.195657 400.766615,95.6634333 400.766615,81.4436835 C400.766615,62.7288419 357.051449,47.503093 303.318631,47.503093 C290.669883,47.503093 278.325172,48.343462 266.631414,49.9997629 L264.479763,50.3052282 L264.226398,51.110299 C264.062685,51.6343417 264.132848,52.1380201 264.436885,52.6064002 C266.611924,55.9556577 264.436885,57.7287141 262.230663,58.6288186 C260.08291,59.5017706 257.393345,59.7800834 255.744525,59.7271361 C252.193521,59.6429634 250.455049,57.1164259 250.193888,55.5442977 L249.769015,52.9783891 L243.922136,54.5464444 C219.739444,61.0318124 205.870647,70.8365702 205.870647,81.4436835 C205.870647,88.0091513 212.087193,93.9393902 222.291946,99.4296201 L221.573535,102.649744 C206.430118,96.144012 198.074808,89.911182 198.074808,81.4436835 C198.074808,61.2313831 245.286408,44.7878458 303.318631,44.7878458 C361.350854,44.7878458 408.562454,61.2313831 408.562454,81.4436835 C408.562454,97.186687 379.916644,110.640737 339.830442,115.821429 C340.033133,115.119537 339.678423,114.228936 337.916563,113.178136 Z M317.936644,96.337549 C313.933481,95.1632046 307.930685,95.3396957 304.551189,96.7326175 L301.721299,97.9001738 C300.084173,98.5749128 299.300691,99.4315733 299.515077,100.312671 C299.729462,101.192411 300.91443,101.990694 302.851696,102.562253 L312.163825,105.30058 C313.894501,105.809689 316.038357,106.081214 318.275763,106.081214 C318.544719,106.081214 318.817574,106.077141 319.08653,106.068995 C321.61628,105.994326 323.908256,105.582966 325.545382,104.906869 L328.37917,103.737955 C331.754768,102.345034 331.248038,100.254293 327.248773,99.0758759 L317.936644,96.337549 L317.936644,96.337549 L317.936644,96.337549 L317.936644,96.337549 L317.936644,96.337549 L317.936644,96.337549 L317.936644,96.337549 L317.936644,96.337549 L317.936644,96.337549 Z M322.423149,101.986621 L319.589362,103.155535 C319.191774,103.31845 318.696738,103.355106 318.43168,103.361894 C318.162723,103.372755 317.655994,103.361894 317.188243,103.223416 L307.876114,100.486447 C307.408364,100.347969 307.30312,100.174193 307.279732,100.081875 C307.260243,99.9909142 307.279732,99.8130655 307.67732,99.6501507 L310.511107,98.4825944 C311.115285,98.2300764 312.195009,98.2002087 312.912226,98.4119979 L322.224355,101.148967 C322.937674,101.360756 323.031224,101.736818 322.423149,101.986621 L322.423149,101.986621 L322.423149,101.986621 L322.423149,101.986621 L322.423149,101.986621 L322.423149,101.986621 L322.423149,101.986621 L322.423149,101.986621 L322.423149,101.986621 Z M327.338425,64.1387897 C327.767196,65.010384 329.143162,65.7706533 331.220753,66.2811197 C332.842287,66.6802611 334.736676,66.8879775 336.67784,66.8879775 C337.215753,66.8879775 337.761462,66.871686 338.303272,66.8391031 L350.31666,66.1236354 C352.819124,65.9756544 355.001959,65.4964133 356.467577,64.7755151 C357.933194,64.054617 358.502291,63.1762345 358.077417,62.3059978 L357.336813,60.7990356 C356.908042,59.9274412 355.532076,59.167172 353.462281,58.6567055 C351.392486,58.1475966 348.87443,57.948026 346.375863,58.0973646 L334.362476,58.8128322 C331.860012,58.9608132 329.677177,59.441412 328.211559,60.1623101 C326.745942,60.8832082 326.176845,61.7615907 326.601719,62.6304698 L327.338425,64.1387897 L327.338425,64.1387897 L327.338425,64.1387897 L327.338425,64.1387897 L327.338425,64.1387897 L327.338425,64.1387897 L327.338425,64.1387897 L327.338425,64.1387897 L327.338425,64.1387897 Z M334.569066,61.7303654 C334.721085,61.6543384 335.064101,61.5240066 335.668279,61.4873507 L347.681666,60.7718831 C347.783012,60.7664526 347.88046,60.7637374 347.97401,60.7637374 C348.430067,60.7637374 348.773084,60.8289033 348.952388,60.8723472 C349.166774,60.9252946 349.540974,61.0461231 349.646218,61.2565547 L350.386822,62.7635169 C350.492066,62.9739486 350.250395,63.1314329 350.098376,63.2047446 C349.946358,63.2807715 349.603341,63.4097458 348.995265,63.4477593 L336.97798,64.1632269 C336.369904,64.1930946 335.925542,64.1157101 335.711156,64.0627627 C335.496771,64.0111731 335.118672,63.8903446 335.017326,63.6799129 L334.276722,62.171593 C334.179274,61.9611614 334.417047,61.8050347 334.569066,61.7303654 L334.569066,61.7303654 L334.569066,61.7303654 L334.569066,61.7303654 L334.569066,61.7303654 L334.569066,61.7303654 L334.569066,61.7303654 L334.569066,61.7303654 L334.569066,61.7303654 Z M302.726962,74.3236821 C300.82088,74.9074602 299.686585,75.7138886 299.526771,76.596344 L299.250018,78.1236706 C298.918695,79.9428862 302.902369,81.5177296 308.129479,81.6344853 L320.294885,81.9019371 C320.501475,81.90601 320.700269,81.9087252 320.906858,81.9087252 C323.218325,81.9087252 325.424547,81.6195514 327.170815,81.0832901 C329.076897,80.4995119 330.211192,79.6930835 330.371007,78.8106281 L330.647759,77.2833016 C330.979082,75.4640859 326.995408,73.8892425 321.768299,73.7724869 L309.60679,73.505035 C307.080938,73.4656639 304.629147,73.7399039 302.726962,74.3236821 L302.726962,74.3236821 L302.726962,74.3236821 L302.726962,74.3236821 L302.726962,74.3236821 L302.726962,74.3236821 L302.726962,74.3236821 L302.726962,74.3236821 L302.726962,74.3236821 Z M322.863614,77.1108834 L322.586862,78.6395675 C322.547882,78.8513568 322.212661,78.9857616 322.017765,79.045497 C321.818971,79.1052324 321.3902,79.2056966 320.782125,79.1921204 L308.620617,78.9246685 C307.681218,78.9029465 306.967899,78.6219184 307.026368,78.2960888 L307.30312,76.7674046 C307.342099,76.5556153 307.67732,76.4212106 307.872216,76.3614751 C308.07101,76.3003821 308.495883,76.1917722 309.107856,76.2148518 L321.265467,76.4823036 C322.208763,76.5040256 322.922083,76.7850537 322.863614,77.1108834 L322.863614,77.1108834 L322.863614,77.1108834 L322.863614,77.1108834 L322.863614,77.1108834 L322.863614,77.1108834 L322.863614,77.1108834 L322.863614,77.1108834 L322.863614,77.1108834 Z M236.715698,76.4184953 L248.600454,77.3579709 L248.604352,77.3579709 C249.305978,77.4122758 250.007603,77.4394283 250.697535,77.4394283 C255.035919,77.4394283 258.965022,76.3967733 259.962889,74.8640163 L262.028786,71.6898922 C262.590087,70.8278012 262.157418,69.9426306 260.80484,69.19458 C259.452262,68.4465294 257.343487,67.9265596 254.872206,67.7310618 L242.98745,66.7929438 C240.512272,66.5960884 237.96693,66.7494999 235.823075,67.2205953 C233.675321,67.6916907 232.182418,68.4261651 231.625015,69.2855408 L229.559118,72.4596648 C228.99392,73.3217558 229.430487,74.2082841 230.786963,74.9576923 C232.135643,75.7057429 234.244417,76.2243551 236.715698,76.4184953 L236.715698,76.4184953 L236.715698,76.4184953 L236.715698,76.4184953 L236.715698,76.4184953 L236.715698,76.4184953 L236.715698,76.4184953 L236.715698,76.4184953 L236.715698,76.4184953 Z M239.225958,69.8869681 C239.362385,69.6806093 239.756075,69.5665689 239.978257,69.5176945 C240.200438,69.4701776 240.672086,69.3955083 241.260672,69.4416675 L253.145428,70.3797854 C253.745708,70.4259447 254.069235,70.5644223 254.20956,70.6404492 C254.349885,70.7191914 254.564271,70.8793909 254.427844,71.088465 L252.361946,74.262589 C252.155357,74.5789153 251.251039,74.7852741 250.327233,74.7092472 L238.438578,73.7697716 C237.846095,73.7236124 237.518669,73.5864924 237.382242,73.5091079 C237.241917,73.4317233 237.027532,73.2701661 237.160061,73.0624497 L239.225958,69.8869681 L239.225958,69.8869681 L239.225958,69.8869681 L239.225958,69.8869681 L239.225958,69.8869681 L239.225958,69.8869681 L239.225958,69.8869681 L239.225958,69.8869681 L239.225958,69.8869681 Z" id="pizza-1" fill="#000000" transform="translate(303.377915, 80.286365) rotate(15.000000) translate(-303.377915, -80.286365) "></path>
        </g>
    </g>
</svg>